<?xml version="1.0" encoding="utf-8"?>
<!-- Generator: Adobe Illustrator 27.5.0, SVG Export Plug-In . SVG Version: 6.00 Build 0)  -->
<svg version="1.1" xmlns="http://www.w3.org/2000/svg" xmlns:xlink="http://www.w3.org/1999/xlink" x="0px" y="0px"
	 viewBox="0 0 800 800" style="enable-background:new 0 0 800 800;" xml:space="preserve">
<g id="Background">
	<rect style="fill:#FFFFFF;" width="800" height="800"/>
</g>
<g id="Designed_by_Freepik">
	<g>
		<path style="fill:#9C9C9C;" d="M288.493,774.285v-0.257c-0.349,0.398-0.692,0.724-1.031,0.973
			c-0.339,0.251-0.706,0.441-1.102,0.57c-0.396,0.132-0.827,0.195-1.296,0.195c-0.621,0-1.196-0.131-1.725-0.394
			c-0.528-0.263-0.986-0.639-1.371-1.125c-0.388-0.488-0.68-1.06-0.879-1.72c-0.2-0.659-0.3-1.371-0.3-2.137
			c0-1.621,0.396-2.886,1.188-3.791c0.791-0.904,1.833-1.357,3.125-1.357c0.746,0,1.377,0.13,1.89,0.384
			c0.513,0.257,1.013,0.652,1.501,1.183v-3.827c0-0.532,0.105-0.934,0.318-1.206c0.211-0.273,0.514-0.408,0.907-0.408
			c0.392,0,0.694,0.125,0.906,0.375c0.213,0.251,0.319,0.618,0.319,1.106v11.436c0,0.494-0.114,0.864-0.342,1.111
			c-0.228,0.246-0.522,0.37-0.883,0.37c-0.355,0-0.648-0.128-0.879-0.384C288.608,775.125,288.493,774.76,288.493,774.285
			 M283.392,770.477c0,0.703,0.109,1.301,0.328,1.795c0.218,0.494,0.517,0.866,0.897,1.115c0.38,0.251,0.795,0.377,1.244,0.377
			c0.456,0,0.872-0.119,1.25-0.357c0.376-0.236,0.677-0.602,0.902-1.091c0.225-0.491,0.336-1.105,0.336-1.839
			c0-0.691-0.111-1.284-0.336-1.782c-0.225-0.496-0.529-0.876-0.912-1.14c-0.383-0.262-0.803-0.392-1.258-0.392
			c-0.475,0-0.899,0.134-1.273,0.402c-0.374,0.269-0.663,0.654-0.869,1.158C283.494,769.227,283.392,769.812,283.392,770.477"/>
		<path style="fill:#9C9C9C;" d="M299.926,771.133h-5.071c0.006,0.589,0.125,1.107,0.356,1.557c0.231,0.45,0.539,0.789,0.921,1.017
			c0.384,0.228,0.806,0.341,1.268,0.341c0.31,0,0.594-0.035,0.851-0.107c0.256-0.074,0.504-0.187,0.746-0.343
			c0.24-0.154,0.461-0.321,0.664-0.498c0.202-0.179,0.465-0.421,0.788-0.724c0.133-0.113,0.323-0.171,0.571-0.171
			c0.266,0,0.481,0.074,0.645,0.22c0.164,0.146,0.248,0.351,0.248,0.617c0,0.234-0.093,0.507-0.276,0.821
			c-0.185,0.313-0.462,0.614-0.831,0.902c-0.372,0.288-0.836,0.526-1.397,0.717c-0.56,0.19-1.204,0.285-1.933,0.285
			c-1.665,0-2.96-0.476-3.884-1.425c-0.925-0.949-1.387-2.238-1.387-3.865c0-0.767,0.114-1.478,0.342-2.133
			c0.228-0.655,0.561-1.217,0.996-1.686c0.437-0.469,0.975-0.827,1.615-1.078c0.639-0.25,1.349-0.374,2.128-0.374
			c1.012,0,1.881,0.212,2.606,0.641c0.726,0.427,1.269,0.979,1.629,1.656c0.36,0.678,0.542,1.369,0.542,2.07
			c0,0.653-0.187,1.075-0.56,1.27C301.131,771.035,300.605,771.133,299.926,771.133 M294.855,769.66h4.702
			c-0.063-0.887-0.304-1.551-0.718-1.99c-0.415-0.44-0.96-0.66-1.638-0.66c-0.646,0-1.177,0.223-1.591,0.668
			C295.195,768.125,294.944,768.786,294.855,769.66"/>
		<path style="fill:#9C9C9C;" d="M311.741,772.375c0,0.716-0.173,1.329-0.522,1.839c-0.348,0.51-0.863,0.896-1.544,1.159
			c-0.68,0.263-1.508,0.394-2.483,0.394c-0.931,0-1.729-0.143-2.394-0.428c-0.664-0.284-1.156-0.642-1.472-1.067
			c-0.317-0.429-0.475-0.857-0.475-1.288c0-0.285,0.1-0.528,0.304-0.73c0.203-0.202,0.46-0.304,0.77-0.304
			c0.272,0,0.48,0.066,0.626,0.199c0.146,0.133,0.286,0.32,0.418,0.56c0.266,0.464,0.585,0.807,0.955,1.036
			c0.37,0.228,0.875,0.342,1.515,0.342c0.519,0,0.945-0.116,1.278-0.347c0.332-0.233,0.498-0.496,0.498-0.794
			c0-0.456-0.172-0.787-0.518-0.996c-0.345-0.209-0.913-0.409-1.705-0.6c-0.893-0.221-1.619-0.455-2.18-0.698
			c-0.56-0.242-1.008-0.565-1.343-0.963c-0.336-0.399-0.504-0.891-0.504-1.473c0-0.518,0.155-1.01,0.465-1.473
			c0.311-0.461,0.768-0.83,1.374-1.106c0.604-0.276,1.333-0.414,2.188-0.414c0.671,0,1.275,0.069,1.809,0.21
			c0.536,0.138,0.983,0.326,1.34,0.56c0.358,0.233,0.63,0.493,0.816,0.777c0.187,0.285,0.28,0.564,0.28,0.837
			c0,0.297-0.1,0.541-0.298,0.731c-0.199,0.189-0.483,0.285-0.851,0.285c-0.266,0-0.492-0.076-0.679-0.231
			c-0.186-0.15-0.4-0.378-0.641-0.682c-0.196-0.253-0.426-0.456-0.692-0.609c-0.267-0.151-0.628-0.227-1.084-0.227
			c-0.469,0-0.858,0.099-1.168,0.3c-0.31,0.198-0.465,0.446-0.465,0.744c0,0.273,0.113,0.496,0.341,0.67
			c0.229,0.175,0.535,0.319,0.922,0.433c0.387,0.113,0.917,0.252,1.596,0.417c0.803,0.197,1.46,0.432,1.97,0.703
			c0.509,0.271,0.896,0.594,1.16,0.965C311.61,771.479,311.741,771.9,311.741,772.375"/>
		<path style="fill:#9C9C9C;" d="M314.39,764.019c-0.361,0-0.669-0.111-0.926-0.333c-0.256-0.221-0.384-0.534-0.384-0.94
			c0-0.368,0.131-0.669,0.394-0.907c0.262-0.238,0.569-0.357,0.916-0.357c0.336,0,0.634,0.108,0.893,0.323
			c0.26,0.216,0.39,0.528,0.39,0.94c0,0.399-0.127,0.711-0.381,0.936C315.039,763.905,314.738,764.019,314.39,764.019
			 M315.673,766.696v7.493c0,0.519-0.124,0.913-0.371,1.179c-0.247,0.267-0.56,0.398-0.94,0.398c-0.38,0-0.689-0.136-0.926-0.408
			c-0.238-0.273-0.356-0.662-0.356-1.169v-7.418c0-0.512,0.118-0.898,0.356-1.158c0.237-0.26,0.546-0.39,0.926-0.39
			c0.38,0,0.693,0.13,0.94,0.39C315.549,765.873,315.673,766.234,315.673,766.696"/>
		<path style="fill:#9C9C9C;" d="M327.032,767.124v7.531c0,0.861-0.093,1.603-0.277,2.224c-0.182,0.619-0.477,1.133-0.882,1.538
			c-0.406,0.404-0.936,0.706-1.591,0.901c-0.655,0.197-1.47,0.295-2.446,0.295c-0.893,0-1.69-0.125-2.394-0.375
			c-0.702-0.251-1.243-0.573-1.624-0.969c-0.379-0.395-0.57-0.803-0.57-1.221c0-0.316,0.108-0.575,0.324-0.773
			c0.215-0.2,0.475-0.3,0.778-0.3c0.38,0,0.713,0.168,0.998,0.503c0.138,0.171,0.282,0.345,0.431,0.519
			c0.149,0.175,0.315,0.323,0.494,0.447c0.181,0.122,0.398,0.214,0.651,0.275c0.253,0.058,0.545,0.09,0.874,0.09
			c0.671,0,1.192-0.093,1.563-0.28c0.37-0.187,0.63-0.448,0.779-0.784c0.149-0.334,0.236-0.693,0.261-1.077
			c0.025-0.384,0.044-0.999,0.057-1.849c-0.4,0.559-0.859,0.983-1.383,1.274c-0.522,0.291-1.144,0.437-1.865,0.437
			c-0.868,0-1.626-0.222-2.276-0.665c-0.648-0.443-1.147-1.064-1.495-1.861c-0.349-0.799-0.522-1.719-0.522-2.764
			c0-0.778,0.105-1.483,0.317-2.108c0.213-0.628,0.515-1.156,0.908-1.587c0.392-0.431,0.845-0.755,1.357-0.974
			c0.513-0.218,1.077-0.327,1.691-0.327c0.734,0,1.371,0.142,1.91,0.422c0.537,0.283,1.038,0.725,1.5,1.326v-0.352
			c0-0.45,0.11-0.798,0.332-1.046c0.222-0.245,0.507-0.37,0.856-0.37c0.5,0,0.832,0.163,0.996,0.489
			C326.949,766.039,327.032,766.51,327.032,767.124 M319.519,770.41c0,1.051,0.229,1.846,0.688,2.384
			c0.459,0.539,1.053,0.808,1.781,0.808c0.43,0,0.837-0.116,1.22-0.347c0.384-0.232,0.695-0.58,0.937-1.045
			c0.239-0.466,0.36-1.029,0.36-1.695c0-1.057-0.232-1.881-0.698-2.469c-0.466-0.589-1.078-0.884-1.838-0.884
			c-0.741,0-1.335,0.282-1.78,0.846C319.742,768.57,319.519,769.372,319.519,770.41"/>
		<path style="fill:#9C9C9C;" d="M331.152,766.658v0.313c0.455-0.602,0.954-1.044,1.496-1.325c0.541-0.281,1.163-0.423,1.866-0.423
			c0.684,0,1.295,0.149,1.833,0.447c0.538,0.298,0.941,0.719,1.206,1.262c0.172,0.317,0.282,0.66,0.332,1.026
			c0.051,0.368,0.078,0.836,0.078,1.406v4.824c0,0.519-0.12,0.913-0.357,1.179c-0.238,0.266-0.546,0.398-0.926,0.398
			c-0.387,0-0.7-0.136-0.941-0.408c-0.241-0.273-0.36-0.662-0.36-1.169v-4.321c0-0.855-0.12-1.509-0.357-1.961
			c-0.238-0.452-0.71-0.68-1.42-0.68c-0.462,0-0.883,0.138-1.263,0.413c-0.38,0.276-0.659,0.655-0.836,1.136
			c-0.126,0.387-0.19,1.107-0.19,2.165v3.248c0,0.525-0.122,0.921-0.365,1.183c-0.244,0.263-0.559,0.394-0.945,0.394
			c-0.374,0-0.681-0.136-0.922-0.408c-0.24-0.273-0.361-0.662-0.361-1.169v-7.493c0-0.494,0.108-0.863,0.323-1.107
			c0.216-0.242,0.51-0.365,0.883-0.365c0.229,0,0.434,0.054,0.619,0.162c0.182,0.108,0.33,0.27,0.441,0.483
			C331.098,766.085,331.152,766.349,331.152,766.658"/>
		<path style="fill:#9C9C9C;" d="M346.927,771.133h-5.071c0.007,0.589,0.125,1.107,0.357,1.557c0.23,0.45,0.537,0.789,0.921,1.017
			c0.382,0.228,0.805,0.341,1.267,0.341c0.31,0,0.594-0.035,0.851-0.107c0.255-0.074,0.504-0.187,0.746-0.343
			c0.239-0.154,0.461-0.321,0.665-0.498c0.201-0.179,0.464-0.421,0.787-0.724c0.133-0.113,0.323-0.171,0.57-0.171
			c0.266,0,0.482,0.074,0.646,0.22c0.165,0.146,0.247,0.351,0.247,0.617c0,0.234-0.092,0.507-0.276,0.821
			c-0.184,0.313-0.461,0.614-0.831,0.902c-0.371,0.288-0.835,0.526-1.396,0.717c-0.56,0.19-1.205,0.285-1.933,0.285
			c-1.665,0-2.96-0.476-3.885-1.425c-0.924-0.949-1.386-2.238-1.386-3.865c0-0.767,0.114-1.478,0.341-2.133
			c0.228-0.655,0.562-1.217,0.999-1.686c0.436-0.469,0.975-0.827,1.614-1.078c0.639-0.25,1.349-0.374,2.128-0.374
			c1.012,0,1.88,0.212,2.606,0.641c0.725,0.427,1.268,0.979,1.63,1.656c0.36,0.678,0.541,1.369,0.541,2.07
			c0,0.653-0.187,1.075-0.561,1.27C348.13,771.035,347.605,771.133,346.927,771.133 M341.855,769.66h4.701
			c-0.063-0.887-0.302-1.551-0.717-1.99c-0.415-0.44-0.961-0.66-1.638-0.66c-0.646,0-1.177,0.223-1.592,0.668
			C342.194,768.125,341.944,768.786,341.855,769.66"/>
		<path style="fill:#9C9C9C;" d="M357.497,774.285v-0.257c-0.349,0.398-0.692,0.724-1.031,0.973
			c-0.339,0.251-0.705,0.441-1.101,0.57c-0.395,0.132-0.828,0.195-1.296,0.195c-0.621,0-1.196-0.131-1.724-0.394
			c-0.529-0.263-0.987-0.639-1.373-1.125c-0.386-0.488-0.679-1.06-0.878-1.72c-0.2-0.659-0.3-1.371-0.3-2.137
			c0-1.621,0.396-2.886,1.188-3.791c0.791-0.904,1.833-1.357,3.125-1.357c0.747,0,1.377,0.13,1.89,0.384
			c0.512,0.257,1.013,0.652,1.5,1.183v-3.827c0-0.532,0.106-0.934,0.318-1.206c0.212-0.273,0.515-0.408,0.908-0.408
			c0.392,0,0.694,0.125,0.906,0.375c0.212,0.251,0.319,0.618,0.319,1.106v11.436c0,0.494-0.114,0.864-0.342,1.111
			c-0.228,0.246-0.522,0.37-0.883,0.37c-0.355,0-0.648-0.128-0.879-0.384C357.612,775.125,357.497,774.76,357.497,774.285
			 M352.397,770.477c0,0.703,0.108,1.301,0.327,1.795c0.219,0.494,0.518,0.866,0.899,1.115c0.379,0.251,0.794,0.377,1.243,0.377
			c0.456,0,0.873-0.119,1.249-0.357c0.377-0.236,0.678-0.602,0.902-1.091c0.225-0.491,0.338-1.105,0.338-1.839
			c0-0.691-0.113-1.284-0.338-1.782c-0.224-0.496-0.528-0.876-0.912-1.14c-0.383-0.262-0.802-0.392-1.258-0.392
			c-0.474,0-0.899,0.134-1.273,0.402c-0.373,0.269-0.663,0.654-0.869,1.158C352.499,769.227,352.397,769.812,352.397,770.477"/>
		<path style="fill:#9C9C9C;" d="M368.094,762.85v3.96c0.488-0.506,0.985-0.895,1.492-1.163c0.506-0.269,1.133-0.403,1.881-0.403
			c0.861,0,1.615,0.204,2.265,0.611c0.648,0.41,1.152,1.002,1.51,1.777c0.357,0.775,0.537,1.695,0.537,2.76
			c0,0.785-0.1,1.504-0.299,2.16c-0.2,0.655-0.49,1.224-0.869,1.704c-0.381,0.481-0.841,0.854-1.382,1.117
			c-0.542,0.263-1.139,0.394-1.791,0.394c-0.399,0-0.775-0.047-1.125-0.143c-0.352-0.095-0.652-0.219-0.898-0.375
			c-0.246-0.154-0.457-0.314-0.632-0.48c-0.174-0.164-0.404-0.412-0.689-0.741v0.257c0,0.487-0.117,0.856-0.351,1.107
			c-0.233,0.25-0.531,0.374-0.893,0.374c-0.367,0-0.66-0.124-0.878-0.374c-0.219-0.251-0.328-0.62-0.328-1.107v-11.322
			c0-0.525,0.106-0.923,0.318-1.191c0.212-0.269,0.509-0.403,0.888-0.403c0.4,0,0.706,0.128,0.922,0.384
			C367.987,762.01,368.094,762.374,368.094,762.85 M368.218,770.553c0,1.032,0.236,1.824,0.708,2.378
			c0.471,0.555,1.09,0.833,1.857,0.833c0.651,0,1.214-0.283,1.685-0.851c0.472-0.567,0.708-1.379,0.708-2.436
			c0-0.684-0.098-1.273-0.294-1.767c-0.197-0.494-0.475-0.876-0.836-1.145c-0.361-0.269-0.783-0.403-1.263-0.403
			c-0.494,0-0.935,0.135-1.321,0.403c-0.386,0.269-0.69,0.658-0.912,1.168C368.329,769.242,368.218,769.85,368.218,770.553"/>
		<path style="fill:#9C9C9C;" d="M379.141,776.09l0.237-0.58l-3.191-8.035c-0.196-0.461-0.295-0.798-0.295-1.007
			c0-0.222,0.058-0.427,0.171-0.616c0.115-0.191,0.272-0.343,0.47-0.456c0.2-0.115,0.407-0.172,0.623-0.172
			c0.373,0,0.654,0.119,0.845,0.357c0.191,0.237,0.358,0.577,0.503,1.021l2.195,6.382l2.08-5.936
			c0.164-0.479,0.313-0.857,0.446-1.13c0.133-0.273,0.273-0.456,0.422-0.55c0.149-0.096,0.36-0.144,0.632-0.144
			c0.197,0,0.385,0.052,0.566,0.157c0.18,0.104,0.319,0.245,0.417,0.423c0.098,0.177,0.148,0.363,0.148,0.56
			c-0.026,0.119-0.066,0.291-0.124,0.514c-0.058,0.221-0.126,0.447-0.208,0.674l-3.382,8.853c-0.292,0.778-0.576,1.389-0.855,1.832
			c-0.279,0.443-0.647,0.785-1.107,1.021c-0.459,0.238-1.078,0.357-1.857,0.357c-0.759,0-1.329-0.082-1.708-0.246
			c-0.381-0.166-0.57-0.466-0.57-0.903c0-0.297,0.089-0.527,0.271-0.688c0.179-0.162,0.447-0.244,0.801-0.244
			c0.139,0,0.276,0.02,0.409,0.059c0.165,0.037,0.307,0.057,0.427,0.057c0.297,0,0.532-0.044,0.703-0.134
			c0.171-0.088,0.324-0.241,0.461-0.461C378.807,776.836,378.964,776.514,379.141,776.09"/>
		<path style="fill:#9C9C9C;" d="M416.703,765.448h0.618v-0.778c0-0.814,0.101-1.457,0.308-1.938
			c0.204-0.479,0.555-0.826,1.047-1.045c0.49-0.217,1.163-0.326,2.016-0.326c1.521,0,2.273,0.367,2.273,1.114
			c0,0.238-0.079,0.444-0.24,0.615c-0.155,0.169-0.343,0.256-0.558,0.256c-0.101,0-0.278-0.019-0.527-0.06
			c-0.238-0.033-0.453-0.056-0.624-0.056c-0.467,0-0.766,0.141-0.905,0.415c-0.127,0.275-0.194,0.669-0.194,1.185v0.617h0.633
			c0.99,0,1.48,0.297,1.48,0.896c0,0.419-0.127,0.69-0.392,0.805c-0.262,0.114-0.624,0.171-1.089,0.171h-0.633v6.871
			c0,0.511-0.12,0.9-0.369,1.168c-0.241,0.273-0.555,0.406-0.943,0.406c-0.367,0-0.671-0.134-0.918-0.406
			c-0.244-0.268-0.364-0.657-0.364-1.168v-6.871h-0.714c-0.388,0-0.682-0.084-0.893-0.262c-0.209-0.171-0.315-0.399-0.315-0.678
			C415.399,765.756,415.835,765.448,416.703,765.448"/>
		<path style="fill:#9C9C9C;" d="M425.192,772.023v2.168c0,0.523-0.133,0.919-0.374,1.18c-0.246,0.266-0.559,0.394-0.937,0.394
			c-0.382,0-0.688-0.131-0.927-0.4c-0.237-0.264-0.361-0.655-0.361-1.174v-7.223c0-1.166,0.42-1.749,1.261-1.749
			c0.435,0,0.743,0.135,0.935,0.409c0.188,0.272,0.295,0.673,0.316,1.208c0.309-0.535,0.624-0.935,0.948-1.208
			c0.332-0.274,0.763-0.409,1.311-0.409c0.549,0,1.071,0.135,1.585,0.409c0.516,0.272,0.771,0.636,0.771,1.084
			c0,0.315-0.11,0.581-0.326,0.781c-0.22,0.209-0.454,0.311-0.706,0.311c-0.099,0-0.331-0.063-0.691-0.179
			c-0.365-0.114-0.69-0.174-0.963-0.174c-0.381,0-0.692,0.103-0.933,0.299c-0.242,0.204-0.43,0.496-0.564,0.886
			c-0.129,0.395-0.22,0.866-0.273,1.404C425.216,770.584,425.192,771.244,425.192,772.023"/>
		<path style="fill:#9C9C9C;" d="M437.113,771.13h-5.074c0.01,0.589,0.124,1.11,0.354,1.559c0.236,0.446,0.541,0.786,0.925,1.017
			c0.385,0.228,0.804,0.34,1.27,0.34c0.31,0,0.593-0.033,0.849-0.111c0.254-0.069,0.505-0.186,0.746-0.34
			c0.242-0.153,0.46-0.319,0.664-0.5c0.202-0.176,0.466-0.417,0.79-0.72c0.134-0.113,0.324-0.174,0.567-0.174
			c0.27,0,0.481,0.074,0.649,0.222c0.166,0.147,0.244,0.351,0.244,0.617c0,0.235-0.089,0.508-0.269,0.819
			c-0.187,0.317-0.463,0.616-0.836,0.906c-0.374,0.286-0.839,0.527-1.397,0.714c-0.561,0.19-1.206,0.286-1.933,0.286
			c-1.671,0-2.964-0.473-3.887-1.422c-0.924-0.952-1.391-2.242-1.391-3.868c0-0.767,0.117-1.479,0.347-2.135
			c0.226-0.658,0.559-1.216,0.999-1.688c0.436-0.471,0.97-0.828,1.613-1.078c0.637-0.249,1.346-0.374,2.128-0.374
			c1.01,0,1.88,0.214,2.605,0.646c0.725,0.423,1.274,0.977,1.63,1.654c0.36,0.681,0.542,1.368,0.542,2.074
			c0,0.648-0.19,1.07-0.563,1.266C438.315,771.033,437.792,771.13,437.113,771.13 M432.039,769.655h4.701
			c-0.062-0.885-0.298-1.55-0.714-1.986c-0.418-0.442-0.959-0.659-1.64-0.659c-0.646,0-1.177,0.219-1.592,0.668
			C432.381,768.124,432.127,768.782,432.039,769.655"/>
		<path style="fill:#9C9C9C;" d="M447.9,771.13h-5.072c0.006,0.589,0.125,1.11,0.354,1.559c0.232,0.446,0.538,0.786,0.92,1.017
			c0.383,0.228,0.806,0.34,1.273,0.34c0.308,0,0.593-0.033,0.845-0.111c0.258-0.069,0.505-0.186,0.75-0.34
			c0.242-0.153,0.46-0.319,0.664-0.5c0.199-0.176,0.464-0.417,0.788-0.72c0.135-0.113,0.326-0.174,0.567-0.174
			c0.27,0,0.484,0.074,0.65,0.222c0.166,0.147,0.241,0.351,0.241,0.617c0,0.235-0.087,0.508-0.275,0.819
			c-0.176,0.317-0.455,0.616-0.83,0.906c-0.37,0.286-0.84,0.527-1.395,0.714c-0.559,0.19-1.208,0.286-1.935,0.286
			c-1.667,0-2.959-0.473-3.887-1.422c-0.923-0.952-1.388-2.242-1.388-3.868c0-0.767,0.116-1.479,0.347-2.135
			c0.228-0.658,0.56-1.216,0.997-1.688c0.435-0.471,0.972-0.828,1.614-1.078c0.637-0.249,1.35-0.374,2.129-0.374
			c1.008,0,1.878,0.214,2.613,0.646c0.72,0.423,1.266,0.977,1.62,1.654c0.359,0.681,0.546,1.368,0.546,2.074
			c0,0.648-0.192,1.07-0.563,1.266C449.101,771.033,448.576,771.13,447.9,771.13 M442.828,769.655h4.7
			c-0.063-0.885-0.304-1.55-0.715-1.986c-0.421-0.442-0.962-0.659-1.642-0.659c-0.646,0-1.176,0.219-1.594,0.668
			C443.166,768.124,442.912,768.782,442.828,769.655"/>
		<path style="fill:#9C9C9C;" d="M453.58,766.678v0.311c0.486-0.601,0.994-1.042,1.524-1.324c0.518-0.284,1.119-0.427,1.783-0.427
			c0.795,0,1.535,0.208,2.207,0.617c0.671,0.414,1.198,1.016,1.588,1.807c0.39,0.795,0.586,1.73,0.586,2.814
			c0,0.796-0.112,1.531-0.336,2.201c-0.223,0.668-0.537,1.227-0.928,1.68c-0.395,0.45-0.857,0.802-1.391,1.046
			c-0.542,0.241-1.11,0.363-1.727,0.363c-0.739,0-1.365-0.148-1.866-0.447c-0.503-0.292-0.982-0.733-1.441-1.306v3.893
			c0,1.136-0.416,1.71-1.243,1.71c-0.49,0-0.81-0.146-0.973-0.439c-0.15-0.3-0.233-0.725-0.233-1.291V766.69
			c0-0.495,0.105-0.859,0.319-1.107c0.216-0.239,0.513-0.364,0.886-0.364c0.368,0,0.666,0.125,0.895,0.375
			C453.468,765.847,453.58,766.203,453.58,766.678 M458.664,770.445c0-0.684-0.107-1.273-0.315-1.763
			c-0.208-0.492-0.499-0.867-0.866-1.128c-0.367-0.263-0.782-0.396-1.231-0.396c-0.715,0-1.319,0.284-1.81,0.844
			c-0.492,0.566-0.739,1.396-0.739,2.493c0,1.026,0.244,1.833,0.735,2.406c0.488,0.573,1.086,0.858,1.814,0.858
			c0.429,0,0.83-0.125,1.196-0.372c0.371-0.253,0.665-0.626,0.885-1.126C458.554,771.76,458.664,771.153,458.664,770.445"/>
		<path style="fill:#9C9C9C;" d="M463.881,764.012c-0.363,0-0.669-0.114-0.923-0.335c-0.261-0.223-0.389-0.532-0.389-0.937
			c0-0.368,0.131-0.67,0.398-0.91c0.262-0.234,0.565-0.355,0.914-0.355c0.34,0,0.636,0.107,0.892,0.319
			c0.26,0.219,0.391,0.534,0.391,0.946c0,0.399-0.127,0.711-0.378,0.936C464.532,763.898,464.231,764.012,463.881,764.012
			 M465.164,766.69v7.502c0,0.516-0.123,0.908-0.369,1.172c-0.25,0.269-0.561,0.4-0.941,0.4c-0.381,0-0.685-0.133-0.928-0.406
			c-0.234-0.276-0.357-0.665-0.357-1.166v-7.428c0-0.51,0.122-0.894,0.357-1.154c0.243-0.265,0.547-0.392,0.928-0.392
			c0.38,0,0.691,0.127,0.941,0.392C465.041,765.87,465.164,766.232,465.164,766.69"/>
		<path style="fill:#9C9C9C;" d="M473.524,774.581l-2.284-3.766l-1.408,1.328v2.065c0,0.499-0.133,0.882-0.397,1.149
			c-0.257,0.273-0.566,0.406-0.905,0.406c-0.399,0-0.716-0.131-0.941-0.4c-0.226-0.263-0.343-0.656-0.343-1.174v-11.063
			c0-0.573,0.114-1.011,0.331-1.314c0.222-0.305,0.545-0.452,0.953-0.452c0.398,0,0.713,0.137,0.948,0.411
			c0.234,0.271,0.355,0.674,0.355,1.201v6.294l2.916-3.063c0.362-0.376,0.632-0.641,0.827-0.778
			c0.189-0.139,0.419-0.208,0.689-0.208c0.326,0,0.595,0.104,0.816,0.308c0.211,0.206,0.32,0.466,0.32,0.773
			c0,0.379-0.354,0.889-1.056,1.522l-1.377,1.263l2.659,4.183c0.194,0.314,0.339,0.544,0.424,0.706
			c0.084,0.159,0.13,0.319,0.13,0.462c0,0.413-0.113,0.734-0.341,0.976c-0.224,0.236-0.522,0.354-0.885,0.354
			c-0.317,0-0.564-0.082-0.734-0.256C474.051,775.336,473.813,775.025,473.524,774.581"/>
		<path style="fill:#9C9C9C;" d="M479.159,775.765c-0.392,0-0.728-0.126-1.014-0.381c-0.284-0.249-0.428-0.605-0.428-1.065
			c0-0.386,0.137-0.719,0.41-0.995c0.273-0.279,0.606-0.419,1.008-0.419c0.397,0,0.735,0.14,1.022,0.412
			c0.279,0.275,0.423,0.612,0.423,1.002c0,0.452-0.144,0.808-0.423,1.06C479.871,775.639,479.539,775.765,479.159,775.765"/>
		<path style="fill:#9C9C9C;" d="M492.058,772.555c0,0.32-0.097,0.668-0.291,1.034c-0.19,0.37-0.487,0.718-0.886,1.05
			c-0.394,0.332-0.891,0.602-1.495,0.804c-0.6,0.202-1.279,0.307-2.029,0.307c-1.607,0-2.858-0.47-3.759-1.401
			c-0.895-0.936-1.346-2.189-1.346-3.76c0-1.067,0.204-2.006,0.62-2.824c0.407-0.814,1.003-1.447,1.781-1.894
			c0.778-0.448,1.716-0.671,2.794-0.671c0.673,0,1.288,0.099,1.852,0.296c0.562,0.195,1.032,0.451,1.425,0.759
			c0.388,0.315,0.687,0.644,0.891,0.992c0.207,0.352,0.307,0.681,0.307,0.987c0,0.308-0.113,0.571-0.342,0.787
			c-0.236,0.215-0.516,0.324-0.839,0.324c-0.219,0-0.398-0.057-0.541-0.166c-0.145-0.112-0.305-0.29-0.479-0.542
			c-0.316-0.478-0.646-0.842-0.996-1.079c-0.343-0.243-0.779-0.362-1.313-0.362c-0.762,0-1.384,0.298-1.855,0.897
			c-0.468,0.596-0.702,1.42-0.702,2.454c0,0.488,0.061,0.939,0.183,1.348c0.117,0.407,0.291,0.756,0.52,1.044
			c0.23,0.287,0.504,0.505,0.826,0.654c0.324,0.153,0.682,0.226,1.065,0.226c0.52,0,0.966-0.12,1.337-0.36
			c0.376-0.241,0.702-0.607,0.985-1.102c0.158-0.291,0.327-0.518,0.51-0.684c0.182-0.163,0.409-0.249,0.675-0.249
			c0.317,0,0.581,0.123,0.787,0.362C491.952,772.025,492.058,772.284,492.058,772.555"/>
		<path style="fill:#9C9C9C;" d="M503.249,770.494c0,0.771-0.123,1.484-0.356,2.139c-0.247,0.652-0.592,1.214-1.05,1.679
			c-0.455,0.469-1.002,0.828-1.632,1.08c-0.639,0.248-1.349,0.375-2.138,0.375c-0.785,0-1.493-0.127-2.121-0.383
			c-0.623-0.249-1.171-0.614-1.626-1.082c-0.461-0.477-0.81-1.034-1.052-1.677c-0.23-0.644-0.352-1.354-0.352-2.131
			c0-0.786,0.124-1.506,0.359-2.158c0.242-0.654,0.589-1.212,1.039-1.673c0.45-0.462,0.992-0.816,1.631-1.07
			c0.643-0.249,1.349-0.374,2.121-0.374c0.784,0,1.498,0.125,2.138,0.382c0.638,0.251,1.183,0.614,1.644,1.08
			c0.458,0.474,0.804,1.028,1.04,1.671C503.128,769.003,503.249,769.712,503.249,770.494 M500.645,770.494
			c0-1.059-0.233-1.881-0.697-2.469c-0.463-0.595-1.09-0.889-1.874-0.889c-0.509,0-0.955,0.133-1.344,0.395
			c-0.387,0.262-0.681,0.649-0.89,1.164c-0.209,0.514-0.314,1.113-0.314,1.799c0,0.679,0.102,1.268,0.309,1.773
			c0.208,0.511,0.502,0.897,0.886,1.166c0.386,0.267,0.835,0.404,1.353,0.404c0.784,0,1.411-0.296,1.874-0.892
			C500.411,772.356,500.645,771.535,500.645,770.494"/>
		<path style="fill:#9C9C9C;" d="M513.141,770.685v3.446c0,0.547-0.12,0.951-0.369,1.227c-0.25,0.273-0.571,0.408-0.978,0.408
			c-0.392,0-0.714-0.136-0.951-0.408c-0.247-0.276-0.372-0.681-0.372-1.227V770c0-0.653-0.02-1.162-0.063-1.524
			c-0.046-0.354-0.168-0.655-0.363-0.883c-0.196-0.235-0.508-0.352-0.93-0.352c-0.852,0-1.408,0.29-1.677,0.881
			c-0.269,0.576-0.406,1.413-0.406,2.507v3.502c0,0.538-0.123,0.946-0.362,1.224c-0.249,0.273-0.566,0.412-0.965,0.412
			c-0.395,0-0.716-0.139-0.966-0.412c-0.252-0.277-0.376-0.686-0.376-1.224v-7.419c0-0.489,0.11-0.86,0.335-1.111
			c0.228-0.257,0.525-0.382,0.889-0.382c0.358,0,0.652,0.123,0.893,0.355c0.235,0.238,0.354,0.566,0.354,0.984v0.245
			c0.454-0.535,0.936-0.931,1.445-1.181c0.516-0.26,1.082-0.386,1.713-0.386c0.65,0,1.211,0.131,1.677,0.39
			c0.47,0.261,0.854,0.655,1.161,1.177c0.44-0.528,0.909-0.923,1.41-1.181c0.5-0.257,1.052-0.386,1.662-0.386
			c0.706,0,1.32,0.143,1.834,0.419c0.51,0.278,0.892,0.68,1.146,1.195c0.222,0.473,0.33,1.21,0.33,2.217v5.063
			c0,0.547-0.122,0.951-0.367,1.227c-0.246,0.273-0.574,0.408-0.979,0.408c-0.396,0-0.714-0.139-0.965-0.412
			c-0.25-0.277-0.376-0.686-0.376-1.224v-4.361c0-0.559-0.024-1.003-0.07-1.338c-0.046-0.337-0.176-0.62-0.382-0.847
			c-0.212-0.228-0.531-0.344-0.953-0.344c-0.342,0-0.667,0.107-0.974,0.308c-0.308,0.198-0.548,0.477-0.722,0.813
			C513.239,768.8,513.141,769.574,513.141,770.685"/>
		<path style="fill:#9C9C9C;" d="M392.435,769.866c-0.002-0.005-0.002-0.01-0.002-0.018
			C392.434,769.856,392.434,769.861,392.435,769.866"/>
		<path style="fill:#9C9C9C;" d="M392.566,770.695h0.003c-0.05-0.236-0.088-0.471-0.119-0.702
			C392.481,770.227,392.52,770.462,392.566,770.695"/>
		<path style="fill:#9C9C9C;" d="M393.425,773.102c-0.006-0.01-0.011-0.021-0.017-0.033
			C393.414,773.081,393.419,773.092,393.425,773.102"/>
		<path style="fill:#9C9C9C;" d="M393.343,772.941c-0.022-0.044-0.044-0.09-0.065-0.134
			C393.299,772.854,393.321,772.898,393.343,772.941"/>
		<path style="fill:#9C9C9C;" d="M392.808,771.622c0.127,0.4,0.28,0.788,0.457,1.158c-0.18-0.378-0.33-0.767-0.454-1.158H392.808z"
			/>
		<path style="fill:#9C9C9C;" d="M402.473,759.93c0.502,0,0.871,0.04,1.296,0.111l0.119-0.763c0,0-1.171-0.36-2.71-0.234
			l-0.121-0.415c0.479-0.101,0.838-0.526,0.838-1.034c0-0.582-0.475-1.054-1.058-1.054s-1.055,0.472-1.055,1.054
			c0,0.508,0.358,0.934,0.836,1.034l0.133,0.463c-1.634,0.225-2.935,0.862-2.935,0.862l0.231,0.705
			c0.988-0.329,1.846-0.529,2.624-0.613C401.432,759.965,402.006,759.93,402.473,759.93"/>
		<path style="fill:#9C9C9C;" d="M393.405,763.788l0.006-0.008c0.038-0.05,0.076-0.098,0.113-0.143l-0.313-0.226l-0.488-0.356
			c-0.027,0.038-0.795,0.744-1.401,2.048c-0.025-0.041-0.056-0.081-0.09-0.119c-0.181-0.198-0.435-0.3-0.758-0.294h-0.015
			c-0.2,0-0.337-0.066-0.427-0.147c0.09-0.113,0.144-0.256,0.144-0.413c0-0.368-0.3-0.669-0.67-0.669
			c-0.369,0-0.668,0.301-0.668,0.669c0,0.37,0.299,0.669,0.668,0.669c0.058,0,0.113-0.01,0.167-0.021
			c0.165,0.183,0.425,0.342,0.808,0.334c0.196-0.002,0.341,0.049,0.437,0.155c0.111,0.121,0.149,0.296,0.16,0.428
			c-0.001,0.002-0.001,0.005-0.003,0.005c-0.436,1.189-0.311,2.67-0.311,2.67l1.057,0.042c0.022-0.539,0.099-1.482,0.372-2.231
			C392.719,764.732,393.378,763.826,393.405,763.788"/>
		<path style="fill:#9C9C9C;" d="M411.672,760.813c-0.367,0-0.669,0.299-0.669,0.669c0,0.058,0.01,0.112,0.023,0.165
			c-0.183,0.166-0.342,0.428-0.336,0.811c0.002,0.196-0.048,0.339-0.155,0.435c-0.085,0.075-0.19,0.115-0.296,0.141
			c-0.787-1.103-1.756-1.775-1.756-1.775l-0.758,0.813c0.573,0.522,1.159,1.175,1.728,1.99c0.395,0.564,0.799,1.29,1.137,2.015
			l1.023-0.486c0,0-0.467-1.155-1.126-2.191c0.115-0.04,0.23-0.102,0.331-0.191c0.201-0.182,0.299-0.438,0.293-0.759
			c-0.002-0.208,0.067-0.349,0.149-0.441c0.113,0.087,0.257,0.143,0.411,0.143c0.371,0,0.671-0.3,0.671-0.669
			C412.343,761.112,412.043,760.813,411.672,760.813"/>
		<path style="fill:#9C9C9C;" d="M409.016,770.016c-1.409,0.686-3.729,1.594-6.781,2.02c-1.198,0.166-2.36,0.227-3.429,0.227
			c-1.39,0-2.619-0.104-3.562-0.223c-1.076-0.136-1.917-0.302-2.432-0.417c0.123,0.391,0.273,0.779,0.454,1.157
			c0.003,0.01,0.007,0.021,0.012,0.027c0.022,0.044,0.043,0.09,0.066,0.134c0.021,0.044,0.043,0.087,0.065,0.127
			c0.006,0.012,0.011,0.023,0.017,0.033c0.302,0.57,0.666,1.095,1.08,1.549c1.44,1.575,2.907,1.824,2.921,1.826l0.023,0.003
			l0.022,0.008c0.013,0.005,1.314,0.424,3.291,0.424c1.945,0,3.855-0.392,5.674-1.166c1.348-0.689,2.622-1.736,3.254-2.67
			c0.487-0.723,0.841-1.493,1.05-2.294c0.111-0.426,0.199-1.107,0.146-1.824C410.491,769.223,409.864,769.602,409.016,770.016"/>
		<path style="fill:#9C9C9C;" d="M393.858,764.122c-0.041,0.06-0.652,0.925-1.135,2.253c-0.362,0.995-0.346,2.443-0.346,2.46v0.003
			c0,0.34,0.018,0.677,0.057,1.011c0,0.008,0,0.012,0.002,0.018c0.004,0.043,0.011,0.084,0.015,0.127
			c0.03,0.231,0.069,0.466,0.119,0.701c0.7,0.179,4.878,1.153,9.548,0.503c2.927-0.407,5.148-1.273,6.499-1.927
			c1.12-0.544,1.842-1.036,2.119-1.238c-0.276-1.028-1.042-2.641-1.742-3.647c-2.006-2.865-4.167-3.6-5.277-3.783
			c-0.424-0.069-0.763-0.109-1.244-0.109c-0.447,0-1.002,0.035-1.743,0.114c-0.743,0.077-1.572,0.272-2.532,0.596
			c-1.348,0.45-2.567,1.16-3.527,2.048l-0.033,0.03C394.496,763.412,394.199,763.688,393.858,764.122 M406.128,763.455
			c0.961,0,1.743,0.78,1.743,1.743c0,0.962-0.782,1.744-1.743,1.744c-0.962,0-1.742-0.782-1.742-1.744
			C404.386,764.235,405.166,763.455,406.128,763.455 M397.886,763.386c1.557,0,2.817,1.262,2.817,2.817
			c0,1.556-1.26,2.814-2.817,2.814c-1.555,0-2.816-1.259-2.816-2.814C395.07,764.648,396.331,763.386,397.886,763.386"/>
	</g>
</g>
<g id="Objects">
	<g>
		<g>
			<polygon style="fill:#FDBB30;" points="618.447,601.99 161.75,598.58 141.471,333.504 640.945,326.004 			"/>
			<g>
				<g>
					<g>
						<g>
							<g>
								<rect x="181.273" y="388.737" style="fill:#7E4300;" width="60.401" height="127.016"/>
								<g>
									<g>
										<rect x="186.189" y="394.293" style="fill:#47C3D3;" width="22.641" height="25.072"/>
										<rect x="214.126" y="394.293" style="fill:#47C3D3;" width="22.641" height="25.072"/>
									</g>
									<g>
										<rect x="186.189" y="424.569" style="fill:#47C3D3;" width="22.641" height="25.074"/>
										<rect x="214.126" y="424.569" style="fill:#47C3D3;" width="22.641" height="25.074"/>
									</g>
									<g>
										<rect x="186.189" y="454.843" style="fill:#47C3D3;" width="22.641" height="25.076"/>
										<rect x="214.126" y="454.843" style="fill:#47C3D3;" width="22.641" height="25.076"/>
									</g>
									<g>
										<rect x="186.189" y="485.124" style="fill:#47C3D3;" width="22.641" height="25.074"/>
										<rect x="214.126" y="485.124" style="fill:#47C3D3;" width="22.641" height="25.074"/>
									</g>
								</g>
							</g>
							<polygon style="opacity:0.3;fill:#009AC7;" points="236.768,394.293 236.768,510.198 211.473,510.198 							"/>
						</g>
						<g>
							<g>
								<rect x="252.181" y="388.737" style="fill:#7E4300;" width="60.401" height="127.016"/>
								<g>
									<g>
										<rect x="257.097" y="394.293" style="fill:#00B5CC;" width="22.641" height="25.072"/>
										<rect x="285.034" y="394.293" style="fill:#00B5CC;" width="22.641" height="25.072"/>
									</g>
									<g>
										<rect x="257.097" y="424.569" style="fill:#00B5CC;" width="22.641" height="25.074"/>
										<rect x="285.034" y="424.569" style="fill:#00B5CC;" width="22.641" height="25.074"/>
									</g>
									<g>
										<rect x="257.097" y="454.843" style="fill:#00B5CC;" width="22.641" height="25.076"/>
										<rect x="285.034" y="454.843" style="fill:#00B5CC;" width="22.641" height="25.076"/>
									</g>
									<g>
										<rect x="257.097" y="485.124" style="fill:#00B5CC;" width="22.641" height="25.074"/>
										<rect x="285.034" y="485.124" style="fill:#00B5CC;" width="22.641" height="25.074"/>
									</g>
								</g>
							</g>
							<polygon style="opacity:0.3;fill:#009AC7;" points="307.675,394.293 307.675,510.198 282.381,510.198 							"/>
						</g>
					</g>
				</g>
				<g>
					<g>
						<g>
							<g>
								<rect x="466.543" y="388.737" style="fill:#7E4300;" width="60.4" height="127.016"/>
								<g>
									<g>
										<rect x="471.459" y="394.293" style="fill:#00B5CC;" width="22.641" height="25.072"/>
										<rect x="499.395" y="394.293" style="fill:#00B5CC;" width="22.643" height="25.072"/>
									</g>
									<g>
										<rect x="471.459" y="424.569" style="fill:#00B5CC;" width="22.641" height="25.074"/>
										<rect x="499.395" y="424.569" style="fill:#00B5CC;" width="22.643" height="25.074"/>
									</g>
									<g>
										<rect x="471.459" y="454.843" style="fill:#00B5CC;" width="22.641" height="25.076"/>
										<rect x="499.395" y="454.843" style="fill:#00B5CC;" width="22.643" height="25.076"/>
									</g>
									<g>
										<rect x="471.459" y="485.124" style="fill:#00B5CC;" width="22.641" height="25.074"/>
										<rect x="499.395" y="485.124" style="fill:#00B5CC;" width="22.643" height="25.074"/>
									</g>
								</g>
							</g>
							<polygon style="opacity:0.3;fill:#009AC7;" points="522.037,394.293 522.037,510.198 496.742,510.198 							"/>
						</g>
						<g>
							<g>
								<rect x="537.449" y="388.737" style="fill:#7E4300;" width="60.4" height="127.016"/>
								<g>
									<g>
										<rect x="542.365" y="394.293" style="fill:#47C3D3;" width="22.643" height="25.072"/>
										<rect x="570.303" y="394.293" style="fill:#47C3D3;" width="22.643" height="25.072"/>
									</g>
									<g>
										<rect x="542.365" y="424.569" style="fill:#47C3D3;" width="22.643" height="25.074"/>
										<rect x="570.303" y="424.569" style="fill:#47C3D3;" width="22.643" height="25.074"/>
									</g>
									<g>
										<rect x="542.365" y="454.843" style="fill:#47C3D3;" width="22.643" height="25.076"/>
										<rect x="570.303" y="454.843" style="fill:#47C3D3;" width="22.643" height="25.076"/>
									</g>
									<g>
										<rect x="542.365" y="485.124" style="fill:#47C3D3;" width="22.643" height="25.074"/>
										<rect x="570.303" y="485.123" style="fill:#47C3D3;" width="22.643" height="25.074"/>
									</g>
								</g>
							</g>
							<polygon style="opacity:0.3;fill:#009AC7;" points="592.945,394.293 592.945,510.196 567.65,510.198 							"/>
						</g>
					</g>
				</g>
			</g>
			<g>
				<g>
					<g>
						<path style="fill:#ED1849;" d="M584.943,336.973c-165.299-61.791-315.228-55.05-476.537,23.055
							C90.13,296.554,80.985,264.819,62.714,201.34c190.922-73.979,367.739-67.137,554.647,23.055
							C604.391,269.433,597.914,291.934,584.943,336.973z"/>
					</g>
					<path style="fill:#AB0634;" d="M584.943,336.973c12.971-45.039,19.447-67.54,32.418-112.577l-43.316,86.753
						c-247.503-83.324-453.248,11.004-453.248,11.004L62.714,201.34c18.271,63.479,27.417,95.214,45.693,158.688
						C269.715,281.923,419.645,275.182,584.943,336.973z"/>
				</g>
				<path id="SVGID_x5F_1_x5F_" style="fill:none;" d="M86.628,316.27c0,0,137.019-83.891,352.823-59.909"/>
				<text>				<textPath  xlink:href="#SVGID_x5F_1_x5F_" startOffset="27.344%">
<tspan  style="fill:#FFFFFF; font-family:'Pacifico-Regular'; font-size:70.5883px;">Restaurant</tspan>				</textPath>
</text>
			</g>
			<polygon style="fill:#22BCB9;" points="797.115,689.461 17.885,689.463 155.547,598.58 659.453,598.58 			"/>
			<g>
				<g>
					<path style="fill:#9C5708;" d="M534.875,122.513c0,0,41.92,13.019,70.396,62.721c28.484,49.702,35.758,97.716,30.221,129.507
						c0,0-2.988,7.244-11.523,6.222c-8.541-1.007-49.408-1.44-60.836-0.911c-11.414,0.545-148.242-4.345-152.043-10.434
						c-3.803-6.079,101.789-162.061,107.201-169.371C523.701,132.936,529.248,120.325,534.875,122.513z"/>
					<g>
						<path style="fill:#F2A031;" d="M637.084,287.595c0.019,0.31,0.029,0.626,0.035,0.931
							C637.109,288.221,637.103,287.905,637.084,287.595z"/>
					</g>
					<g>
						<path style="fill:#FFE092;" d="M415.375,306.046c0,0,92.883-148.487,99.092-153.091c6.217-4.609,50.949,33.79,63.885,54.968
							c12.93,21.178,26.314,70.28,23.275,104.467C601.627,312.39,412,317.259,415.375,306.046z"/>
						<g>
							<path style="fill:#241013;" d="M444.84,278.153c1.756-5.85,7.84-9.131,13.592-7.351c5.746,1.785,8.979,7.966,7.223,13.806
								c-1.752,5.846-7.84,9.137-13.586,7.357C446.316,290.174,443.078,283.993,444.84,278.153z"/>
							<path style="fill:#472027;" d="M446.361,278.921c1.102-3.907,5.111-6.166,8.961-5.041c3.84,1.129,6.051,5.194,4.951,9.096
								c-1.098,3.908-5.107,6.161-8.951,5.042C447.482,286.903,445.26,282.824,446.361,278.921z"/>
							<path style="fill:#241013;" d="M448.775,281.149c0.57-1.887,2.531-2.946,4.391-2.371c1.855,0.575,2.902,2.569,2.336,4.457
								c-0.57,1.892-2.533,2.945-4.389,2.365C449.256,285.026,448.209,283.032,448.775,281.149z"/>
							<path style="opacity:0.5;fill:#8B6A7A;" d="M446.018,277.929c-0.387-1.196,1.004-2.732,3.092-3.414
								c2.107-0.692,4.111-0.275,4.502,0.926c0.379,1.191-1.014,2.727-3.115,3.418C448.404,279.547,446.391,279.135,446.018,277.929
								z"/>
							<path style="fill:#D9C5D6;" d="M448.949,287.946c0.707-2.172,2.203-1.038,4.891-0.784c2.684,0.254,4.441-0.86,4.855,1.704
								c0.24,1.561-2.447,2.651-5.135,2.396C450.873,291.003,448.463,289.436,448.949,287.946z"/>
						</g>
						<g>
							<path style="fill:#241013;" d="M508.484,250.361c1.406-4.67,6.268-7.29,10.857-5.866c4.59,1.424,7.174,6.359,5.771,11.029
								c-1.402,4.66-6.252,7.29-10.848,5.86C509.672,259.961,507.088,255.026,508.484,250.361z"/>
							<path style="fill:#472027;" d="M509.701,250.977c0.891-3.114,4.094-4.92,7.158-4.024c3.068,0.895,4.84,4.146,3.955,7.265
								c-0.871,3.113-4.076,4.919-7.139,4.024C510.607,257.346,508.828,254.095,509.701,250.977z"/>
							<path style="fill:#241013;" d="M511.637,252.757c0.451-1.511,2.024-2.361,3.506-1.898c1.48,0.458,2.322,2.061,1.861,3.556
								c-0.451,1.511-2.018,2.361-3.504,1.903C512.018,255.855,511.188,254.258,511.637,252.757z"/>
							<path style="opacity:0.5;fill:#8B6A7A;" d="M509.426,250.188c-0.301-0.956,0.811-2.182,2.482-2.737
								c1.682-0.549,3.285-0.219,3.584,0.748c0.305,0.957-0.801,2.177-2.482,2.731C511.332,251.48,509.734,251.145,509.426,250.188z
								"/>
							<path style="fill:#D9C5D6;" d="M511.773,258.181c0.561-1.735,1.758-0.825,3.904-0.621c2.146,0.198,3.549-0.692,3.875,1.353
								c0.205,1.251-1.949,2.116-4.1,1.913C513.305,260.627,511.389,259.386,511.773,258.181z"/>
						</g>
						<g>
							<path style="fill:#241013;" d="M562.627,298.268c-3.344-6.257-1.055-14.071,5.092-17.475
								c6.156-3.388,13.855-1.079,17.199,5.185c3.338,6.257,1.057,14.076-5.102,17.475
								C573.664,306.845,565.967,304.526,562.627,298.268z"/>
							<path style="fill:#472027;" d="M564.504,297.612c-2.293-4.11-0.859-9.35,3.189-11.675c4.061-2.33,9.205-0.88,11.492,3.241
								c2.293,4.121,0.867,9.35-3.188,11.681C571.94,303.182,566.797,301.728,564.504,297.612z"/>
							<path style="fill:#241013;" d="M568.295,297.388c-1.078-2.014-0.342-4.542,1.647-5.631c1.998-1.109,4.465-0.352,5.551,1.669
								c1.082,2.02,0.35,4.543-1.652,5.642C571.857,300.161,569.375,299.418,568.295,297.388z"/>
							<path style="opacity:0.5;fill:#8B6A7A;" d="M563.408,297.103c-1.297-0.662-1.412-3.093-0.26-5.418
								c1.15-2.335,3.133-3.689,4.43-3.038c1.287,0.657,1.406,3.083,0.25,5.423C566.682,296.401,564.699,297.755,563.408,297.103z"
								/>
							<path style="fill:#D9C5D6;" d="M573.99,302.801c-1.201-2.376,0.951-2.702,3.359-4.762c2.398-2.065,2.918-4.451,5.342-2.717
								c1.496,1.069,0.186,4.228-2.219,6.288C578.06,303.681,574.816,304.429,573.99,302.801z"/>
						</g>
						<g>
							<path style="fill:#241013;" d="M514.156,173.686c4.779-5.215,12.799-5.5,17.926-0.646c5.125,4.853,5.406,13.008,0.631,18.212
								c-4.775,5.209-12.795,5.495-17.922,0.646C509.666,187.045,509.385,178.89,514.156,173.686z"/>
							<path style="fill:#472027;" d="M515.367,175.278c3.119-3.51,8.459-3.8,11.904-0.636c3.463,3.169,3.754,8.587,0.625,12.108
								c-3.109,3.51-8.44,3.8-11.898,0.626C512.529,184.216,512.248,178.794,515.367,175.278z"/>
							<path style="fill:#241013;" d="M516.789,178.869c1.535-1.688,4.119-1.775,5.777-0.208c1.656,1.563,1.746,4.197,0.199,5.881
								c-1.537,1.684-4.125,1.776-5.781,0.204C515.332,183.184,515.236,180.544,516.789,178.869z"/>
							<path style="opacity:0.5;fill:#8B6A7A;" d="M515.502,174.067c0.195-1.459,2.428-2.339,4.965-1.973
								c2.555,0.366,4.441,1.841,4.236,3.301c-0.195,1.455-2.428,2.34-4.971,1.969C517.199,176.998,515.297,175.512,515.502,174.067
								z"/>
							<path style="fill:#D9C5D6;" d="M513.539,186.074c1.832-1.909,2.828,0.056,5.514,1.719c2.691,1.658,5.08,1.409,4.234,4.298
								c-0.527,1.76-3.897,1.506-6.584-0.152C514.019,190.28,512.283,187.386,513.539,186.074z"/>
						</g>
						<g>
							<path style="fill:#D11242;" d="M493.055,255.907c11.91,7.545,15.289,23.89,7.555,36.501
								c-7.744,12.632-23.678,16.732-35.58,9.193L493.055,255.907z"/>
							<path style="fill:#EC0012;" d="M491.824,257.915c10.863,6.883,13.947,21.79,6.889,33.296
								c-7.059,11.513-21.59,15.251-32.453,8.374L491.824,257.915z"/>
							<path style="fill:#F2613B;" d="M485.678,267.938c5.631,3.571,7.223,11.304,3.574,17.281
								c-3.664,5.968-11.203,7.911-16.84,4.345L485.678,267.938z"/>
							<g>
								<path style="fill:#FFA23B;" d="M497.051,270.283c0,0-0.602-2.295-2.047-1.959c-1.434,0.326-3.084,0.667-2.348,2.107
									C493.396,271.855,497.992,271.952,497.051,270.283z"/>
								<path style="fill:#FFA23B;" d="M498.178,281.556c0,0,0.34-2.366-1.107-2.63c-1.461-0.27-3.113-0.615-2.988,0.987
									C494.213,281.525,498.393,283.459,498.178,281.556z"/>
								<path style="fill:#FFA23B;" d="M494.332,291.319c0,0,1.051-2.127-0.246-2.854c-1.285-0.727-2.742-1.592-3.127-0.025
									C490.574,290.011,493.941,293.181,494.332,291.319z"/>
								<path style="fill:#FFA23B;" d="M485.598,297.708c0,0,1.602-1.729,0.564-2.803c-1.025-1.079-2.178-2.33-2.992-0.931
									C482.363,295.358,484.697,299.377,485.598,297.708z"/>
								<path style="fill:#FFA23B;" d="M474.693,298.792c0,0,2.293-0.473,2.043-1.963c-0.234-1.48-0.48-3.174-1.922-2.508
									C473.363,294.997,472.998,299.642,474.693,298.792z"/>
							</g>
						</g>
						<g>
							<path style="fill:#D11242;" d="M535.666,271.356c-1.266-14.204,9.525-26.8,24.094-28.123
								c14.57-1.328,27.4,9.111,28.662,23.32L535.666,271.356z"/>
							<path style="fill:#EC0012;" d="M537.973,271.148c-1.145-12.957,8.701-24.445,21.996-25.65
								c13.285-1.221,24.984,8.302,26.131,21.259L537.973,271.148z"/>
							<path style="fill:#F2613B;" d="M549.553,270.09c-0.586-6.715,4.52-12.678,11.408-13.303
								c6.898-0.631,12.965,4.309,13.561,11.024L549.553,270.09z"/>
							<g>
								<path style="fill:#FFA23B;" d="M544.535,259.452c0,0-1.441,1.877-0.32,2.838c1.127,0.978,2.395,2.107,3.074,0.626
									C547.971,261.477,545.277,257.691,544.535,259.452z"/>
								<path style="fill:#FFA23B;" d="M552.707,251.755c0,0-2.059,1.145-1.392,2.488c0.656,1.343,1.381,2.884,2.572,1.806
									C555.078,254.976,554.066,250.428,552.707,251.755z"/>
								<path style="fill:#FFA23B;" d="M562.688,248.988c0,0-2.303,0.427-2.092,1.907c0.199,1.486,0.4,3.19,1.867,2.554
									C563.928,252.824,564.4,248.184,562.688,248.988z"/>
								<path style="fill:#FFA23B;" d="M572.965,252.218c0,0-2.318-0.264-2.539,1.226c-0.225,1.486-0.516,3.165,1.072,2.991
									C573.07,256.248,574.826,251.938,572.965,252.218z"/>
								<path style="fill:#FFA23B;" d="M580.398,260.404c0,0-1.768-1.567-2.773-0.479c-1.021,1.093-2.213,2.299-0.822,3.073
									C578.201,263.771,582.084,261.253,580.398,260.404z"/>
							</g>
						</g>
						<g>
							<path style="fill:#D11242;" d="M537.838,226.06c-8.795,11.116-25.158,12.565-36.553,3.246
								c-11.408-9.315-13.52-25.884-4.715-37L537.838,226.06z"/>
							<path style="fill:#EC0012;" d="M536.027,224.579c-8.016,10.134-22.953,11.467-33.35,2.956
								c-10.392-8.501-12.314-23.605-4.291-33.734L536.027,224.579z"/>
							<path style="fill:#F2613B;" d="M526.977,217.171c-4.166,5.245-11.92,5.932-17.311,1.537
								c-5.391-4.411-6.379-12.25-2.223-17.506L526.977,217.171z"/>
							<g>
								<path style="fill:#FFA23B;" d="M523.31,228.369c0,0,2.318-0.335,2.168-1.826c-0.141-1.486-0.279-3.2-1.768-2.62
									C522.221,224.493,521.574,229.117,523.31,228.369z"/>
								<path style="fill:#FFA23B;" d="M512.174,228.155c0,0,2.264,0.621,2.697-0.809c0.445-1.43,0.977-3.058-0.606-3.119
									C512.68,224.157,510.291,228.15,512.174,228.155z"/>
								<path style="fill:#FFA23B;" d="M503.088,223.099c0,0,1.957,1.328,2.828,0.107c0.865-1.211,1.889-2.58,0.397-3.16
									C504.824,219.466,501.32,222.483,503.088,223.099z"/>
								<path style="fill:#FFA23B;" d="M497.906,213.524c0,0,1.508,1.837,2.668,0.916c1.178-0.921,2.523-1.923,1.271-2.915
									C500.59,210.543,496.371,212.41,497.906,213.524z"/>
								<path style="fill:#FFA23B;" d="M498.152,202.388c0,0,0.195,2.376,1.672,2.305c1.471-0.061,3.152-0.097,2.688-1.638
									C502.037,201.508,497.521,200.587,498.152,202.388z"/>
							</g>
						</g>
						<g>
							<path style="fill:#75A633;" d="M495.855,243.122c0,0-3.281,1.476-8.457,4.477c-5.135,2.977-9.5,14.041-9.5,14.041
								l-6.588,0.219c0,0,4.275-8.15,4.58-9.447c0.281-1.272-11.598-8.74-4.85-22.206l5.672-0.595c0,0-5.197,13.558,1.365,18.293
								c0,0,6.809-4.39,11.594-6.089L495.855,243.122z"/>
							<path style="fill:#5E8934;" d="M487.398,247.599c5.176-3.001,8.457-4.477,8.457-4.477s-7.42,0.895-10.733,4.38
								c-3.34,3.495-13.813,14.356-13.813,14.356l6.588-0.219C477.898,261.64,482.264,250.575,487.398,247.599z"/>
							<path style="fill:#5E8934;" d="M473.863,229.921c-0.228,0.534-1.057,2.869-1.191,8.831c-0.17,7.499,5.147,9.229,5.147,9.229
								l0.014-0.28c-6.16-4.899-1.119-18.09-1.119-18.09L473.863,229.921z"/>
						</g>
						<g>
							<path style="fill:#75A633;" d="M517.906,308.463c0,0,1.154-4.045,2.396-10.928c1.227-6.816-5.15-18.96-5.15-18.96
								l4.711-6.084c0,0,3.904,9.899,4.805,11.141c0.9,1.201,16.219-3.917,22.906,12.149l-3.693,5.535c0,0-7.93-14.743-16.92-12.372
								c0,0-1.256,9.375-3.32,14.936L517.906,308.463z"/>
							<path style="fill:#5E8934;" d="M520.303,297.535c-1.242,6.883-2.396,10.928-2.396,10.928s4.734-7.331,4.174-12.897
								c-0.561-5.58-2.217-23.075-2.217-23.075l-4.711,6.084C515.152,278.575,521.529,290.719,520.303,297.535z"/>
							<path style="fill:#5E8934;" d="M545.729,298.538c-0.291-0.621-1.713-3.088-6.795-7.641
								c-6.396-5.728-11.848-2.229-11.848-2.229l0.234,0.219c8.846-1.893,16.561,12.428,16.561,12.428L545.729,298.538z"/>
						</g>
						<g>
							<path style="fill:#75A633;" d="M544.144,229.554c0,0,2.119-3.149,5.088-8.73c2.938-5.509,0.805-17.795,0.805-17.795
								l5.742-3.892c0,0,0.621,9.635,1.057,10.958c0.44,1.288,15.047,1.257,16.363,17.007l-4.705,3.704
								c0,0-2.762-14.952-11.148-15.476c0,0-3.664,7.718-6.988,11.91L544.144,229.554z"/>
							<path style="fill:#5E8934;" d="M549.232,220.824c-2.969,5.581-5.088,8.73-5.088,8.73s6.109-4.96,7.164-9.91
								c1.063-4.975,4.471-20.507,4.471-20.507l-5.742,3.892C550.037,203.029,552.17,215.315,549.232,220.824z"/>
							<path style="fill:#5E8934;" d="M570.855,228.943c-0.094-0.615-0.619-3.149-3.742-8.516c-3.93-6.756-9.586-5.301-9.586-5.301
								l0.135,0.25c8.139,0.9,10.832,15.43,10.832,15.43L570.855,228.943z"/>
						</g>
					</g>
				</g>
			</g>
			<rect x="141.871" y="579.491" style="fill:#663700;" width="498.072" height="69.157"/>
			<rect x="339.647" y="352.137" style="fill:#7E4300;" width="99.962" height="246.164"/>
			<g>
				<path style="opacity:0.5;fill:#B8BABC;" d="M748.78,663.006c0,2.32-13.004,4.203-29.047,4.203
					c-16.049,0-29.051-1.883-29.051-4.203c0-2.318,13.002-4.195,29.051-4.195C735.776,658.81,748.78,660.688,748.78,663.006z"/>
				<g>
					<g>
						<g>
							<g>
								<polygon style="fill:#6E8778;" points="722.675,418.512 700.384,418.512 687.825,368.669 735.245,368.669 								"/>
								<polygon style="fill:#FFFFFF;" points="719.888,418.512 703.224,418.512 691.944,372.542 731.161,372.542 								"/>
								<rect x="710.226" y="372.542" style="fill:#6E8778;" width="2.699" height="45.97"/>
								<polygon style="fill:#586E62;" points="736.171,372.542 686.954,372.542 710.306,342.109 712.925,342.109 								"/>
								<path style="fill:#44584D;" d="M717.761,342.994c0,3.48-2.773,6.308-6.199,6.308c-3.422,0-6.195-2.828-6.195-6.308
									c0-3.48,2.773-6.288,6.195-6.288C714.987,336.706,717.761,339.514,717.761,342.994z"/>
								<path style="fill:#586E62;" d="M717.761,341.768c0,3.485-2.773,6.303-6.199,6.303c-3.422,0-6.195-2.818-6.195-6.303
									c0-3.479,2.773-6.297,6.195-6.297C714.987,335.47,717.761,338.289,717.761,341.768z"/>
								<path style="fill:#44584D;" d="M736.788,370.659c0.629,1.037,0.16,1.882-1.027,1.882H687.37
									c-1.201,0-1.662-0.845-1.031-1.882l2.213-3.693c0.615-1.043,2.102-1.882,3.293-1.882h39.436c1.191,0,2.68,0.839,3.295,1.882
									L736.788,370.659z"/>
							</g>
							<g>
								<path style="fill:#44584D;" d="M725.992,418.412c0.354-0.589,0.081-1.07-0.606-1.07h-27.648
									c-0.687,0-0.959,0.481-0.605,1.07l1.277,2.123c0.354,0.589,1.206,1.07,1.893,1.07h22.521c0.687,0,1.538-0.482,1.893-1.07
									L725.992,418.412z"/>
							</g>
						</g>
						<path style="fill:#586E62;" d="M716.423,517.877v-50.328c1.117-0.916,1.861-2.279,1.248-4.27
							c-0.367-1.184-0.803-2.248-1.248-3.285v-19.561c1.893-3.209,4.275-6.273,6.037-8.689c3.394-4.629,5.473-8.984,9.361-8.715
							c3.891,0.26,4.035,3.17,3.234,5.938c-0.775,2.777-3.754,2.777-4.404,2.645c-0.646-0.131-1.949-1.588-0.521-2.92
							c1.435-1.313,2.328-1.703,0.916-2.762c-1.426-1.064-4.68,1.186-3.76,5.412c0.896,4.227,6.748,3.557,9.332,0.402
							c2.607-3.18,3.508-11.477-5.053-12.408l-20.004,0.127l-20.002-0.127c-8.561,0.932-7.658,9.229-5.051,12.408
							c2.584,3.154,8.435,3.824,9.336-0.402c0.916-4.227-2.344-6.477-3.764-5.412c-1.418,1.059-0.521,1.449,0.916,2.762
							c1.426,1.332,0.125,2.789-0.521,2.92c-0.65,0.133-3.639,0.133-4.426-2.645c-0.775-2.768-0.641-5.678,3.254-5.938
							c3.891-0.27,5.967,4.086,9.352,8.715c1.777,2.416,4.154,5.48,6.047,8.689v19.561c-0.451,1.037-0.881,2.102-1.242,3.285
							c-0.621,1.99,0.131,3.354,1.242,4.27v71.969v9.143l-6.924,114.58h11.783h11.785l-6.924-136.359 M716.423,432.435v-4.715
							c0,0-0.074-2.117,1.639-4.279h5.32C723.382,423.441,719.657,427.736,716.423,432.435z M699.739,423.441h5.32
							c1.713,2.162,1.643,4.279,1.643,4.279v4.715C703.474,427.746,699.739,423.441,699.739,423.441z"/>
						<path style="fill:#586E62;" d="M716.433,517.912v-50.344c1.057-0.98,1.834-2.258,1.258-4.313
							c-0.387-1.186-0.781-2.264-1.258-3.242v-19.627c1.928-3.143,4.24-6.182,6.088-8.643c3.369-4.604,5.396-9.014,9.271-8.734
							c3.953,0.299,4.049,3.148,3.273,5.986c-0.771,2.748-3.764,2.748-4.445,2.662c-0.57-0.193-1.922-1.68-0.477-2.951
							c1.441-1.277,2.309-1.668,0.871-2.748c-1.352-1.066-4.641,1.182-3.764,5.393c0.951,4.229,6.748,3.535,9.367,0.393
							c2.592-3.135,3.469-11.477-5.033-12.453l-19.983,0.199h-0.295v243.75h12.049l-6.924-136.4V517.912z M716.433,427.721
							c0,0-0.109-2.158,1.639-4.324h5.31c0,0-3.76,4.324-6.949,9.039V427.721z"/>
						<path style="fill:#44584D;" d="M716.433,517.912v-50.344c1.057-0.98,1.834-2.258,1.258-4.313
							c-0.387-1.186-0.781-2.264-1.258-3.242v-19.627c1.928-3.143,4.24-6.182,6.088-8.643c3.369-4.604,5.396-9.014,9.271-8.734
							c3.953,0.299,4.049,3.148,3.273,5.986c-0.771,2.748-3.764,2.748-4.445,2.662c-0.57-0.193-1.922-1.68-0.477-2.951
							c1.441-1.277,2.309-1.668,0.871-2.748c-1.352-1.066-4.641,1.182-3.764,5.393c0.951,4.229,6.748,3.535,9.367,0.393
							c2.592-3.135,3.469-11.477-5.033-12.453l-19.983,0.199h-0.295v243.75h12.049l-6.924-136.4V517.912z M716.433,427.721
							c0,0-0.109-2.158,1.639-4.324h5.31c0,0-3.76,4.324-6.949,9.039V427.721z"/>
					</g>
				</g>
			</g>
			<path style="fill:#663700;" d="M352.422,516.467c0,2.242-1.793,4.068-4.005,4.068c-2.218,0-4.01-1.826-4.01-4.068
				c0-2.248,1.792-4.074,4.01-4.074C350.63,512.393,352.422,514.219,352.422,516.467z"/>
			<rect x="358.6" y="526.891" style="fill:#663700;" width="60.656" height="59.471"/>
			<g>
				<g>
					<rect x="326.607" y="604.229" style="fill:#9C9C9C;" width="124.747" height="13.348"/>
					<polygon style="fill:#D2D2D3;" points="451.353,604.229 326.607,604.229 339.051,598.58 438.912,598.58 					"/>
				</g>
				<g>
					<rect x="311.064" y="622.699" style="fill:#9C9C9C;" width="155.836" height="13.35"/>
					<polygon style="fill:#D2D2D3;" points="466.9,622.699 311.064,622.699 326.607,617.053 451.353,617.053 					"/>
				</g>
				<g>
					<rect x="289.198" y="640.957" style="fill:#9C9C9C;" width="197.39" height="16.498"/>
					<polygon style="fill:#D2D2D3;" points="486.588,640.957 289.198,640.957 308.886,635.31 466.9,635.31 					"/>
				</g>
			</g>
			<g>
				<polygon style="fill:#663700;" points="649.945,370.324 132.299,347.119 132.299,316.109 649.945,286.582 				"/>
				<polygon style="fill:#531F1F;" points="649.945,296.107 132.299,322.015 132.299,309.862 649.945,276.506 				"/>
			</g>
			<g>
				<path style="fill:#00B085;" d="M478.73,338.642c0,25.735-42.09,46.589-94.016,46.594c-51.93,0-94.025-20.859-94.025-46.589
					c0-25.727,42.094-46.59,94.025-46.59C436.641,292.056,478.73,312.915,478.73,338.642z"/>
				<path style="fill:none;stroke:#FFFFFF;stroke-width:1.5503;stroke-miterlimit:10;" d="M472.332,338.646
					c0,22.805-39.225,41.294-87.613,41.294c-48.386,0-87.617-18.488-87.617-41.294c0-22.806,39.231-41.294,87.617-41.294
					C433.107,297.352,472.332,315.84,472.332,338.646z"/>
			</g>
			<g>
				<g>
					<g>
						<rect x="359.76" y="400.649" style="fill:#47C3D3;" width="26.116" height="25.076"/>
						<rect x="391.983" y="400.649" style="fill:#47C3D3;" width="26.115" height="25.076"/>
					</g>
					<g>
						<rect x="359.76" y="430.93" style="fill:#47C3D3;" width="26.116" height="25.076"/>
						<rect x="391.983" y="430.93" style="fill:#47C3D3;" width="26.115" height="25.076"/>
					</g>
					<g>
						<rect x="359.76" y="461.203" style="fill:#47C3D3;" width="26.116" height="25.076"/>
						<rect x="391.983" y="461.203" style="fill:#47C3D3;" width="26.115" height="25.076"/>
					</g>
					<g>
						<rect x="359.76" y="491.482" style="fill:#47C3D3;" width="26.116" height="25.076"/>
						<rect x="391.983" y="491.482" style="fill:#47C3D3;" width="26.115" height="25.076"/>
					</g>
				</g>
				<polygon style="opacity:0.3;fill:#009AC7;" points="418.098,400.649 418.098,516.559 388.924,516.559 				"/>
			</g>
			
				<text transform="matrix(1.0624 0 0 1.3 330.6807 362.7031)" style="fill:#FFFFFF; font-family:'FrenteH1-Regular'; font-size:41.3858px;">Welcome</text>
			<g>
				<path style="opacity:0.5;fill:#B8BABC;" d="M86.466,656.035c0,2.666,9.376,4.84,20.949,4.84c11.574,0,20.96-2.174,20.96-4.84
					c0-2.67-9.386-4.848-20.96-4.848C95.842,651.188,86.466,653.365,86.466,656.035z"/>
				<g>
					<g>
						<g>
							<path style="fill:#794400;" d="M102.556,620.002c0.715,0.078,3.889,1.984,7.083,4.019l2.828-44.646h7.484l0.726,45.607
								c4.76-2.914,11.718-7.111,12.725-7.223c1.531-0.164,1.026,1.221-0.175,2.086c-0.861,0.621-8.02,6.959-12.45,11.436
								l0.405,25.482h-13.62l1.666-26.449c-3.188-3.352-6.558-6.598-7.188-7.067C100.848,622.379,101.019,619.824,102.556,620.002z"
								/>
							<path style="opacity:0.4;fill:#231F20;" d="M102.08,623.295c0.551,0.451,3.93,3.656,7.199,6.994l-1.747,26.506h7.974v-77.42
								h-3.058l-2.833,44.592c-3.169-2-6.337-3.887-7.104-3.994C100.983,619.856,100.878,622.404,102.08,623.295z"/>
						</g>
						<g>
							<path style="fill:#00B085;" d="M74.468,522.215c-2.894,40.744,15.573,78.178,41.623,78.178
								c26.051,0,44.522-37.434,41.624-78.178c-2.553-35.742-21.064-61.683-41.624-61.683S77.011,486.473,74.468,522.215z"/>
							<path style="fill:#009470;" d="M116.091,460.531c0.471,0,0.921,0.086,1.382,0.107c-16.334,3.963-29.945,25.967-31.472,55.137
								c-1.872,36.293,15.313,69.211,38.635,69.211c11.598,0,21.68-8.449,28.433-21.682c-6.967,21.846-20.648,37.088-36.978,37.088
								c-26.05,0-44.517-37.434-41.623-78.178C77.011,486.473,95.532,460.531,116.091,460.531z"/>
						</g>
					</g>
				</g>
			</g>
			<g>
				<path style="opacity:0.5;fill:#B8BABC;" d="M689.621,656.035c0,2.666-9.375,4.84-20.949,4.84
					c-11.572,0-20.959-2.174-20.959-4.84c0-2.67,9.387-4.848,20.959-4.848C680.246,651.188,689.621,653.365,689.621,656.035z"/>
				<g>
					<g>
						<g>
							<path style="fill:#794400;" d="M673.533,620.002c-0.715,0.076-3.889,1.984-7.082,4.019l-2.83-44.646h-7.482l-0.727,45.607
								c-4.76-2.914-11.719-7.111-12.725-7.223c-1.531-0.164-1.025,1.221,0.176,2.086c0.859,0.621,8.02,6.959,12.449,11.436
								l-0.406,25.482h13.621l-1.666-26.449c3.19-3.352,6.557-6.598,7.188-7.067C675.24,622.379,675.07,619.824,673.533,620.002z"/>
							<path style="opacity:0.4;fill:#231F20;" d="M674.008,623.295c-0.551,0.451-3.93,3.656-7.197,6.994l1.746,26.506h-7.975
								v-77.42h3.061l2.832,44.592c3.17-2,6.338-3.889,7.103-3.994C675.105,619.856,675.209,622.404,674.008,623.295z"/>
						</g>
						<g>
							<path style="fill:#00B085;" d="M701.621,522.215c2.894,40.744-15.572,78.176-41.623,78.176
								c-26.051,0-44.523-37.432-41.625-78.176c2.553-35.742,21.067-61.683,41.625-61.683
								C680.557,460.531,699.078,486.473,701.621,522.215z"/>
							<path style="fill:#009470;" d="M659.998,460.531c-0.471,0-0.922,0.086-1.383,0.107c16.334,3.963,29.945,25.967,31.473,55.137
								c1.873,36.293-15.313,69.211-38.635,69.211c-11.6,0-21.682-8.449-28.434-21.682c6.969,21.846,20.649,37.086,36.979,37.086
								c26.051,0,44.518-37.432,41.623-78.176C699.078,486.473,680.557,460.531,659.998,460.531z"/>
						</g>
					</g>
				</g>
			</g>
			<g>
				<path style="opacity:0.5;fill:#B8BABC;" d="M284.502,659.059c1.071,5.504-20.043,14.416-47.18,19.875
					c-27.142,5.465-50.023,5.408-51.1-0.096c-1.076-5.519,20.059-14.443,47.2-19.902
					C260.56,653.473,283.427,653.543,284.502,659.059z"/>
				<g>
					<g>
						<g>
							<polygon style="fill:#572700;" points="210.867,673.242 229.724,668.592 230.76,628.188 211.227,633.732 							"/>
							<polygon style="fill:#794400;" points="210.867,673.242 211.227,633.732 206.486,635.356 205.796,671.125 							"/>
						</g>
						<g>
							<polygon style="fill:#BE854C;" points="266.086,665.93 283.922,659.586 278.13,615.17 262.832,619.652 							"/>
							<polygon style="fill:#9B5F0E;" points="266.086,665.93 262.832,619.652 258.953,621.066 260.735,662.934 							"/>
						</g>
						<g>
							<polygon style="fill:#BE854C;" points="222.391,678.582 240.476,673.018 236.562,628.396 221.089,632.201 							"/>
							<polygon style="fill:#9B5F0E;" points="222.391,678.582 221.089,632.201 217.154,633.449 217.169,675.354 							"/>
						</g>
					</g>
					<polygon style="fill:#E6C29F;" points="201.215,658.941 300.882,630.391 276.753,496.906 189.126,510.234 					"/>
					<polygon style="fill:#BE854C;" points="189.126,510.234 182.213,508.195 195.193,657.354 201.215,658.941 					"/>
					<polygon style="fill:#D4A67C;" points="182.213,508.195 189.126,510.234 276.753,496.906 269.62,494.148 					"/>
					<polygon style="fill:#2D2D2D;" points="271.402,506.836 199.163,519.977 209.775,647.84 291.962,623.824 					"/>
					<text transform="matrix(0.9494 -0.2602 0.2582 0.9661 217.4071 552.0856)"><tspan x="0" y="0" style="fill:#FFFFFF; font-family:'Pacifico-Regular'; font-size:17.0822px;">Today </tspan><tspan x="-9.642" y="20.499" style="fill:#FFFFFF; font-family:'Pacifico-Regular'; font-size:17.0822px;">Specials!</tspan></text>
					<g>
						<g>
							<path style="fill:#9C5708;" d="M242.539,579.875c0,0,9.236-0.127,18.086,7.986c8.855,8.113,13.35,17.271,14.247,24.006
								c0,0-0.15,1.65-1.922,2.006c-1.778,0.35-10.002,2.93-12.259,3.785c-2.258,0.859-30.016,8.801-31.162,7.824
								c-1.146-0.967,10.187-39.152,10.808-40.973C240.962,582.688,241.277,579.799,242.539,579.875z"/>
							<g>
								<path style="fill:#F2A031;" d="M273.47,606.322c0.025,0.063,0.05,0.123,0.07,0.193
									C273.515,606.445,273.495,606.385,273.47,606.322z"/>
							</g>
							<g>
								<path style="fill:#FFE092;" d="M230.159,624.486c0,0,9.256-35.846,10.212-37.174c0.956-1.334,12.355,3.453,16.289,6.852
									c3.93,3.42,9.721,12.392,11.268,19.443C267.928,613.607,230.189,626.957,230.159,624.486z"/>
								<g>
									<path style="fill:#241013;" d="M234.309,616.971c-0.015-1.291,0.996-2.344,2.263-2.365
										c1.261-0.016,2.308,1.012,2.317,2.305c0.02,1.281-0.991,2.34-2.257,2.359C235.371,619.285,234.324,618.258,234.309,616.971
										z"/>
									<path style="fill:#472027;" d="M234.665,617.027c-0.025-0.859,0.631-1.578,1.472-1.598c0.846-0.025,1.552,0.646,1.572,1.5
										c0.03,0.856-0.636,1.572-1.477,1.592C235.39,618.549,234.689,617.877,234.665,617.027z"/>
									<path style="fill:#241013;" d="M235.285,617.316c0-0.422,0.326-0.758,0.731-0.764c0.411-0.014,0.746,0.322,0.756,0.738
										c0.005,0.412-0.326,0.754-0.736,0.764C235.626,618.06,235.29,617.729,235.285,617.316z"/>
									<path style="opacity:0.5;fill:#8B6A7A;" d="M234.534,616.844c-0.15-0.213,0.025-0.609,0.401-0.885
										c0.38-0.275,0.806-0.32,0.961-0.107c0.155,0.219-0.03,0.615-0.411,0.891C235.11,617.018,234.685,617.063,234.534,616.844z"
										/>
									<path style="fill:#D9C5D6;" d="M235.75,618.664c0.005-0.483,0.376-0.35,0.932-0.477c0.561-0.123,0.841-0.459,1.081,0.029
										c0.155,0.297-0.325,0.688-0.877,0.815C236.326,619.154,235.75,619.002,235.75,618.664z"/>
								</g>
								<g>
									<path style="fill:#241013;" d="M245.322,607.244c-0.01-1.033,0.796-1.873,1.808-1.887c1.011-0.012,1.842,0.809,1.857,1.836
										c0.015,1.027-0.796,1.871-1.807,1.887C246.168,609.086,245.337,608.268,245.322,607.244z"/>
									<path style="fill:#472027;" d="M245.602,607.289c-0.02-0.686,0.516-1.262,1.186-1.277c0.671-0.023,1.227,0.516,1.256,1.201
										c0.015,0.678-0.516,1.258-1.182,1.271C246.188,608.506,245.623,607.973,245.602,607.289z"/>
									<path style="fill:#241013;" d="M246.103,607.514c0-0.332,0.255-0.6,0.585-0.605c0.326-0.006,0.596,0.266,0.596,0.59
										c0.004,0.332-0.255,0.606-0.581,0.611C246.383,608.113,246.108,607.85,246.103,607.514z"/>
									<path style="opacity:0.5;fill:#8B6A7A;" d="M245.497,607.146c-0.115-0.178,0.03-0.492,0.335-0.711
										c0.295-0.225,0.636-0.26,0.766-0.082c0.11,0.174-0.03,0.488-0.33,0.707C245.962,607.279,245.623,607.32,245.497,607.146z"
										/>
									<path style="fill:#D9C5D6;" d="M246.479,608.598c0-0.381,0.295-0.291,0.745-0.377c0.436-0.107,0.662-0.371,0.857,0.019
										c0.12,0.231-0.251,0.551-0.696,0.647C246.934,608.984,246.479,608.861,246.479,608.598z"/>
								</g>
								<g>
									<path style="fill:#241013;" d="M259.213,613.318c-1.071-1.033-1.106-2.746-0.085-3.836
										c1.026-1.078,2.713-1.119,3.779-0.088c1.066,1.045,1.097,2.76,0.075,3.842C261.966,614.32,260.274,614.356,259.213,613.318
										z"/>
									<path style="fill:#472027;" d="M259.544,613.074c-0.721-0.682-0.761-1.826-0.1-2.555c0.671-0.732,1.797-0.777,2.518-0.101
										c0.721,0.678,0.756,1.822,0.095,2.549C261.391,613.699,260.259,613.74,259.544,613.074z"/>
									<path style="fill:#241013;" d="M260.294,612.773c-0.345-0.33-0.355-0.891-0.03-1.236c0.336-0.352,0.876-0.359,1.221-0.025
										c0.345,0.332,0.356,0.887,0.03,1.236C261.18,613.1,260.635,613.115,260.294,612.773z"/>
									<path style="opacity:0.5;fill:#8B6A7A;" d="M259.288,613.029c-0.295-0.041-0.47-0.519-0.385-1.059
										c0.085-0.549,0.39-0.947,0.691-0.9c0.3,0.049,0.48,0.529,0.396,1.072C259.904,612.688,259.594,613.09,259.288,613.029z"/>
									<path style="fill:#D9C5D6;" d="M261.776,613.486c-0.391-0.391,0.02-0.6,0.371-1.17c0.351-0.57,0.306-1.084,0.906-0.895
										c0.366,0.115,0.295,0.838-0.056,1.408C262.647,613.394,262.047,613.762,261.776,613.486z"/>
								</g>
								<g>
									<path style="fill:#241013;" d="M241.617,591.488c0.631-1.353,2.218-1.938,3.56-1.297c1.332,0.641,1.907,2.26,1.276,3.611
										c-0.63,1.359-2.223,1.94-3.559,1.303C241.563,594.465,240.987,592.842,241.617,591.488z"/>
									<path style="fill:#472027;" d="M241.963,591.732c0.4-0.904,1.456-1.316,2.342-0.904c0.896,0.406,1.296,1.475,0.896,2.385
										c-0.4,0.906-1.457,1.313-2.348,0.906C241.953,593.707,241.558,592.639,241.963,591.732z"/>
									<path style="fill:#241013;" d="M242.474,592.359c0.2-0.439,0.716-0.627,1.142-0.418c0.435,0.209,0.625,0.723,0.42,1.17
										c-0.21,0.434-0.715,0.621-1.156,0.412C242.454,593.32,242.264,592.791,242.474,592.359z"/>
									<path style="opacity:0.5;fill:#8B6A7A;" d="M241.913,591.479c-0.05-0.305,0.34-0.625,0.871-0.723
										c0.536-0.092,1.006,0.082,1.057,0.387c0.055,0.305-0.336,0.631-0.876,0.723
										C242.444,591.957,241.963,591.785,241.913,591.479z"/>
									<path style="fill:#D9C5D6;" d="M242.279,594.018c0.24-0.504,0.57-0.18,1.211-0.016c0.646,0.152,1.111-0.047,1.126,0.586
										c0.005,0.387-0.69,0.553-1.331,0.396C242.639,594.832,242.108,594.357,242.279,594.018z"/>
								</g>
								<g>
									<path style="fill:#D11242;" d="M242.579,609.359c2.863,0.738,4.575,3.803,3.819,6.834c-0.751,3.037-3.694,4.898-6.552,4.16
										L242.579,609.359z"/>
									<path style="fill:#EC0012;" d="M242.463,609.838c2.613,0.682,4.17,3.465,3.479,6.238c-0.686,2.772-3.369,4.473-5.977,3.795
										L242.463,609.838z"/>
									<path style="fill:#F2613B;" d="M241.857,612.256c1.357,0.352,2.163,1.795,1.808,3.234c-0.361,1.44-1.747,2.32-3.104,1.969
										L241.857,612.256z"/>
									<g>
										<path style="fill:#FFA23B;" d="M244.29,611.986c0,0-0.27-0.424-0.535-0.26c-0.27,0.156-0.581,0.33-0.341,0.574
											C243.655,612.541,244.586,612.256,244.29,611.986z"/>
										<path style="fill:#FFA23B;" d="M245.227,614.174c0,0-0.081-0.494-0.391-0.459c-0.315,0.047-0.661,0.086-0.535,0.397
											C244.426,614.422,245.387,614.539,245.227,614.174z"/>
										<path style="fill:#FFA23B;" d="M245.072,616.381c0,0,0.075-0.494-0.235-0.555c-0.3-0.061-0.646-0.143-0.621,0.199
											C244.236,616.367,245.107,616.783,245.072,616.381z"/>
										<path style="fill:#FFA23B;" d="M243.72,618.227c0,0,0.215-0.441-0.065-0.59c-0.271-0.152-0.581-0.324-0.661,0.006
											C242.924,617.973,243.645,618.625,243.72,618.227z"/>
										<path style="fill:#FFA23B;" d="M241.602,619.158c0,0,0.425-0.244,0.286-0.523c-0.14-0.285-0.301-0.606-0.546-0.373
											C241.097,618.486,241.322,619.44,241.602,619.158z"/>
									</g>
								</g>
								<g>
									<path style="fill:#D11242;" d="M252.105,609.682c-1.156-2.767,0.215-5.998,3.053-7.215
										c2.844-1.215,6.077,0.041,7.224,2.809L252.105,609.682z"/>
									<path style="fill:#EC0012;" d="M252.555,609.488c-1.051-2.523,0.195-5.469,2.789-6.578
										c2.588-1.115,5.541,0.029,6.578,2.559L252.555,609.488z"/>
									<path style="fill:#F2613B;" d="M254.813,608.521c-0.55-1.309,0.105-2.834,1.446-3.414c1.337-0.58,2.869,0.02,3.414,1.334
										L254.813,608.521z"/>
									<g>
										<path style="fill:#FFA23B;" d="M253.136,606.715c0,0-0.175,0.467,0.11,0.59c0.29,0.121,0.611,0.266,0.656-0.08
											C253.947,606.898,253.166,606.313,253.136,606.715z"/>
										<path style="fill:#FFA23B;" d="M254.282,604.639c0,0-0.335,0.357-0.12,0.59c0.21,0.225,0.456,0.484,0.626,0.199
											C254.963,605.127,254.473,604.283,254.282,604.639z"/>
										<path style="fill:#FFA23B;" d="M256.109,603.428c0,0-0.436,0.24-0.295,0.52c0.13,0.289,0.276,0.615,0.536,0.392
											C256.6,604.121,256.4,603.16,256.109,603.428z"/>
										<path style="fill:#FFA23B;" d="M258.372,603.408c0,0-0.48,0.102-0.43,0.412c0.049,0.316,0.1,0.672,0.405,0.529
											C258.657,604.207,258.738,603.231,258.372,603.408z"/>
										<path style="fill:#FFA23B;" d="M260.379,604.568c0,0-0.451-0.199-0.586,0.082c-0.135,0.283-0.29,0.609,0.035,0.676
											C260.154,605.383,260.775,604.625,260.379,604.568z"/>
									</g>
								</g>
								<g>
									<path style="fill:#D11242;" d="M249.672,600.453c-1.061,2.797-4.245,4.16-7.128,3.031c-2.873-1.123-4.34-4.305-3.274-7.111
										L249.672,600.453z"/>
									<path style="fill:#EC0012;" d="M249.222,600.275c-0.972,2.553-3.885,3.795-6.508,2.768
										c-2.623-1.029-3.955-3.938-2.988-6.492L249.222,600.275z"/>
									<path style="fill:#F2613B;" d="M246.934,599.373c-0.501,1.328-2.018,1.975-3.374,1.436
										c-1.356-0.529-2.052-2.035-1.547-3.357L246.934,599.373z"/>
									<g>
										<path style="fill:#FFA23B;" d="M246.909,601.861c0,0,0.445-0.219,0.32-0.508c-0.126-0.291-0.255-0.617-0.525-0.408
											C246.444,601.154,246.613,602.127,246.909,601.861z"/>
										<path style="fill:#FFA23B;" d="M244.656,602.549c0,0,0.496-0.022,0.496-0.342c-0.005-0.314,0-0.676-0.321-0.584
											C244.511,601.713,244.286,602.67,244.656,602.549z"/>
										<path style="fill:#FFA23B;" d="M242.519,602.127c0,0,0.475,0.137,0.57-0.164c0.1-0.305,0.215-0.644-0.12-0.66
											C242.639,601.281,242.123,602.117,242.519,602.127z"/>
										<path style="fill:#FFA23B;" d="M240.872,600.539c0,0,0.42,0.269,0.59,0.016c0.185-0.266,0.395-0.555,0.075-0.672
											C241.222,599.771,240.491,600.412,240.872,600.539z"/>
										<path style="fill:#FFA23B;" d="M240.221,598.295c0,0,0.19,0.459,0.48,0.352c0.29-0.107,0.625-0.228,0.44-0.504
											C240.942,597.869,239.981,597.971,240.221,598.295z"/>
									</g>
								</g>
								<g>
									<path style="fill:#75A633;" d="M242.338,606.607c0,0-0.571,0.52-1.417,1.455c-0.846,0.938-1.021,3.44-1.021,3.44
										l-1.311,0.475c0,0,0.346-1.92,0.326-2.193c-0.025-0.279-2.879-0.998-2.378-4.141l1.101-0.494c0,0-0.185,3.068,1.427,3.58
										c0,0,1.091-1.322,1.948-1.969L242.338,606.607z"/>
									<path style="fill:#5E8934;" d="M240.921,608.063c0.846-0.935,1.417-1.455,1.417-1.455s-1.436,0.668-1.887,1.588
										c-0.446,0.916-1.862,3.781-1.862,3.781l1.311-0.475C239.9,611.502,240.076,609,240.921,608.063z"/>
									<path style="fill:#5E8934;" d="M237.087,605.398c-0.015,0.121-0.035,0.645,0.315,1.85c0.445,1.518,1.617,1.518,1.617,1.518
										l-0.015-0.057c-1.547-0.58-1.367-3.561-1.367-3.561L237.087,605.398z"/>
								</g>
								<g>
									<path style="fill:#75A633;" d="M250.884,618.283c0,0-0.026-0.885-0.205-2.346c-0.191-1.455-2.238-3.469-2.238-3.469
										l0.561-1.527c0,0,1.411,1.73,1.672,1.918c0.255,0.184,3.003-1.846,5.361,0.941l-0.395,1.354c0,0-2.518-2.435-4.175-1.379
										c0,0,0.341,1.965,0.281,3.215L250.884,618.283z"/>
									<path style="fill:#5E8934;" d="M250.679,615.938c0.179,1.461,0.205,2.346,0.205,2.346s0.48-1.781,0.024-2.863
										c-0.465-1.08-1.907-4.479-1.907-4.479l-0.561,1.527C248.44,612.469,250.488,614.482,250.679,615.938z"/>
									<path style="fill:#5E8934;" d="M255.834,614.473c-0.101-0.096-0.536-0.504-1.842-1.088c-1.642-0.733-2.518,0.33-2.518,0.33
										l0.06,0.025c1.657-0.955,4.104,1.414,4.104,1.414L255.834,614.473z"/>
								</g>
								<g>
									<path style="fill:#75A633;" d="M251.169,600.736c0,0,0.22-0.768,0.46-2.084c0.251-1.287-0.956-3.611-0.956-3.611
										l0.901-1.16c0,0,0.731,1.896,0.901,2.131c0.176,0.223,3.104-0.738,4.36,2.34l-0.701,1.059c0,0-1.507-2.824-3.219-2.381
										c0,0-0.25,1.781-0.655,2.844L251.169,600.736z"/>
									<path style="fill:#5E8934;" d="M251.629,598.652c-0.24,1.317-0.46,2.084-0.46,2.084s0.911-1.393,0.806-2.455
										c-0.106-1.059-0.401-4.4-0.401-4.4l-0.901,1.16C250.673,595.041,251.88,597.365,251.629,598.652z"/>
									<path style="fill:#5E8934;" d="M256.485,598.875c-0.06-0.117-0.325-0.59-1.296-1.459c-1.207-1.106-2.252-0.438-2.252-0.438
										l0.04,0.035c1.692-0.346,3.159,2.397,3.159,2.397L256.485,598.875z"/>
								</g>
							</g>
						</g>
					</g>
				</g>
			</g>
		</g>
		<g>
			
				<linearGradient id="SVGID_00000095313834471864812410000013951260901004516010_" gradientUnits="userSpaceOnUse" x1="257.0171" y1="197.0474" x2="281.1675" y2="172.8969" gradientTransform="matrix(0.9978 -0.0668 0.0668 0.9978 -8.1594 20.8439)">
				<stop  offset="0" style="stop-color:#FFFFFF;stop-opacity:0"/>
				<stop  offset="1" style="stop-color:#939598"/>
			</linearGradient>
			<path style="fill:url(#SVGID_00000095313834471864812410000013951260901004516010_);" d="M354.649,189.944
				c0,0-6.885-31.843-0.695-41.8c6.192-9.957,28.022-22.267,18.185-48.307c-9.838-26.041-39.367-9.173-44.048-1.369
				c0,0-10.184-19.369-39.955-13.602c-29.772,5.769-23.298,32.017-23.298,32.017s-29.555,5.923-27.104,34.006
				c2.453,28.085,43.434,20.547,43.434,20.547l4,30.457c0,0,23.071,5.601,36.444-1.08
				C334.987,194.135,354.649,189.944,354.649,189.944z"/>
			<g>
				<g>
					<path style="fill:#FFFFFF;" d="M356.629,183.356c0,0-6.885-31.844-0.695-41.8c6.192-9.958,28.022-22.267,18.186-48.307
						c-9.839-26.041-39.368-9.173-44.049-1.369c0,0-10.184-19.368-39.954-13.601c-29.773,5.768-23.298,32.016-23.298,32.016
						s-29.555,5.923-27.104,34.006c2.452,28.085,43.434,20.547,43.434,20.547l4,30.459c0,0,23.072,5.601,36.445-1.08
						C336.968,187.547,356.629,183.356,356.629,183.356z"/>
					<path style="fill:#DDF2F5;" d="M351.645,177.909c0,0-5.97-24.972-2.478-30.721c0,0-16.166,1.219-25.705,5.456
						c-9.535,4.236-26.443,10.402-32.786,10.867c0,0,16.438,0.338,31.165-5.446c14.726-5.782,21.599-5.058,21.599-5.058
						s0.067,15.083,2.658,20.732c0,0-13.936,4.886-24.49,14.235C321.607,187.975,341.75,176.424,351.645,177.909z"/>
					<path style="fill:#DDF2F5;" d="M251.991,129.848c0,0,9.973-12.471,30.131-8.598
						C282.122,121.25,261.289,109.802,251.991,129.848z"/>
					<path style="fill:#DDF2F5;" d="M278.965,89.588c0,0,29.792-13.976,49.387,13.656C328.352,103.244,314.11,66.641,278.965,89.588
						z"/>
					<path style="fill:#DDF2F5;" d="M358.007,92.466c0,0,5.813,33.272-15.549,43.342
						C342.458,135.808,372.927,124.543,358.007,92.466z"/>
					<path style="fill:#DDF2F5;" d="M264.829,157.107c0,0,16.578,4.811,34.054-1.775c17.476-6.586,35.483-11.981,42.244-11.877
						c0,0-20.178,0.315-33.144,5.147C295.02,153.436,271.497,158.51,264.829,157.107z"/>
				</g>
				<g>
					<path style="fill:#E6E7E8;" d="M322.16,154.189c-6.123,1.505-11.167,3.472-11.167,3.472
						C315.186,156.58,318.887,155.403,322.16,154.189z"/>
					<path style="fill:#E6F5FD;" d="M323.595,194.226c13.373-6.679,33.034-10.87,33.034-10.87s-6.885-31.844-0.695-41.8
						c6.192-9.958,28.022-22.267,18.186-48.307c-8.979-23.767-34.353-11.792-42.275-3.586c0.31-0.215,19.255-13.267,31.946,2.251
						c12.797,15.648,2.747,39.611-18.555,47.304c0,0-37.253,9.384-71.363,26.512c9.056-2.226,53.561-5.627,58.29-10.129
						c9.385-8.939,6.689,27.405-10.556,32.374c-17.244,4.966-34.458,7.332-34.458,7.332S310.222,200.907,323.595,194.226z"/>
				</g>
			</g>
		</g>
		<g>
			<polygon style="fill-rule:evenodd;clip-rule:evenodd;fill:#663700;" points="468.163,142.882 497.607,147.941 458.117,192.859 
							"/>
			<polygon style="fill-rule:evenodd;clip-rule:evenodd;fill:#663700;" points="437.603,145.491 454.25,134.741 455.143,174.384 			
				"/>
		</g>
	</g>
</g>
</svg>
